<svg xmlns="http://www.w3.org/2000/svg" xmlns:xlink="http://www.w3.org/1999/xlink" width="570" zoomAndPan="magnify" viewBox="0 0 427.5 314.999992" height="420" preserveAspectRatio="xMidYMid meet" version="1.0"><defs><clipPath id="761778de21"><path d="M 7.34375 95.652344 L 419 95.652344 L 419 219.257812 L 7.34375 219.257812 Z M 7.34375 95.652344 " clip-rule="nonzero"/></clipPath></defs><g clip-path="url(#761778de21)"><path fill="#58240f" d="M 352.300781 163.625 L 357.09375 212.121094 C 357.144531 212.78125 356.941406 213.445312 356.535156 214.007812 C 356.125 214.566406 355.460938 214.875 354.800781 214.925781 L 308.550781 219.257812 C 308.449219 219.257812 308.398438 219.257812 308.296875 219.257812 C 308.042969 219.257812 307.839844 219.207031 307.582031 219.15625 L 302.332031 217.628906 C 301.160156 217.269531 300.394531 216.199219 300.496094 214.976562 C 300.597656 213.75 301.515625 212.78125 302.6875 212.628906 L 347.660156 206.664062 L 346.335938 169.949219 C 346.335938 169.796875 346.335938 169.644531 346.386719 169.492188 L 347.253906 163.523438 C 347.457031 162.25 348.578125 161.332031 349.855469 161.332031 C 351.128906 161.382812 352.199219 162.351562 352.300781 163.625 Z M 114.28125 103.507812 L 46.105469 103.507812 C 44.679688 103.507812 43.558594 104.628906 43.558594 106.054688 L 43.558594 207.480469 C 43.558594 208.90625 44.679688 210.027344 46.105469 210.027344 L 110.40625 210.027344 C 111.78125 210.027344 112.902344 208.957031 112.953125 207.582031 L 116.828125 106.15625 C 116.882812 105.445312 116.574219 104.78125 116.117188 104.269531 C 115.605469 103.8125 114.941406 103.507812 114.28125 103.507812 Z M 326.859375 205.390625 C 327.0625 205.390625 327.265625 205.390625 327.46875 205.390625 C 329.710938 205.441406 333.433594 205.542969 335.628906 203.296875 C 336.390625 202.535156 337.207031 201.15625 337.054688 199.015625 C 336.648438 193.660156 332.976562 191.46875 329.457031 191.671875 C 325.886719 191.773438 322.675781 189.171875 322.472656 186.011719 C 321.910156 175.457031 322.011719 154.039062 322.011719 153.121094 C 322.371094 146.136719 323.1875 145.21875 325.023438 143.179688 C 325.226562 142.921875 325.429688 142.71875 325.683594 142.464844 C 326.5 141.496094 327.773438 141.085938 328.4375 141.242188 C 328.539062 141.292969 328.742188 141.34375 328.898438 142.003906 C 328.898438 142.105469 328.949219 142.261719 329 142.363281 C 329.203125 142.972656 329.253906 145.066406 329.253906 146.085938 C 329.253906 146.695312 329.253906 147.308594 329.304688 147.765625 C 329.457031 150.46875 330.375 152.253906 332.007812 153.121094 C 333.589844 153.988281 335.476562 153.785156 337.667969 152.5625 C 346.183594 147.714844 343.378906 138.894531 341.898438 134.101562 L 341.695312 133.4375 C 341.695312 133.386719 341.644531 133.335938 341.644531 133.285156 C 339.757812 128.441406 335.527344 125.179688 330.578125 124.820312 C 322.828125 123.902344 320.074219 127.777344 316.914062 132.265625 C 316.914062 131.296875 316.710938 130.277344 316.046875 129.410156 C 314.925781 127.828125 312.886719 127.117188 310.082031 127.371094 C 307.789062 127.574219 305.390625 127.625 303.097656 127.675781 C 301.871094 127.726562 300.699219 127.726562 299.476562 127.777344 C 299.476562 127.777344 299.425781 127.777344 299.425781 127.777344 C 296.007812 127.984375 293.613281 130.992188 292.695312 133.847656 C 292.183594 135.324219 291.878906 138.078125 293.152344 139.914062 C 293.917969 141.035156 295.140625 141.699219 296.621094 141.699219 L 296.925781 141.699219 C 296.976562 141.699219 297.027344 141.699219 297.078125 141.699219 C 299.066406 141.597656 300.953125 142.261719 302.433594 143.585938 C 303.910156 144.910156 304.726562 146.695312 304.878906 148.683594 L 306.511719 186.574219 C 306.511719 186.574219 306.511719 186.625 306.511719 186.625 C 306.714844 189.683594 304.625 192.386719 301.617188 192.894531 C 301.566406 192.894531 301.515625 192.894531 301.464844 192.945312 C 298.253906 193.710938 296.160156 195.699219 295.292969 199.015625 C 294.785156 200.492188 294.53125 203.195312 295.804688 205.03125 C 296.570312 206.152344 297.792969 206.816406 299.222656 206.816406 C 299.273438 206.816406 299.324219 206.816406 299.375 206.816406 C 303.148438 206.613281 308.144531 206.359375 312.9375 206.152344 C 317.882812 205.847656 322.980469 205.59375 326.859375 205.390625 Z M 300.085938 125.230469 C 300.191406 125.230469 300.292969 125.230469 300.394531 125.230469 L 346.949219 119.414062 C 347.710938 119.3125 348.375 118.90625 348.78125 118.242188 C 349.191406 117.632812 349.292969 116.816406 349.089844 116.101562 L 348.070312 112.835938 C 347.710938 111.664062 346.539062 110.898438 345.265625 111.054688 L 308.042969 116.355469 C 307.789062 116.40625 307.582031 116.457031 307.328125 116.558594 L 299.015625 120.332031 C 297.894531 120.84375 297.285156 122.117188 297.640625 123.34375 C 297.945312 124.515625 298.964844 125.230469 300.085938 125.230469 Z M 284.128906 99.9375 L 249.8125 98.765625 C 249.609375 98.765625 249.453125 98.765625 249.25 98.816406 L 236.300781 101.210938 C 235.125 101.414062 234.207031 102.433594 234.207031 103.660156 L 232.425781 200.75 C 232.425781 201.871094 233.136719 202.890625 234.207031 203.246094 L 244.507812 206.359375 C 244.710938 206.410156 244.96875 206.460938 245.171875 206.460938 L 279.640625 207.378906 C 279.640625 207.378906 279.691406 207.378906 279.691406 207.378906 C 281.070312 207.378906 282.191406 206.308594 282.242188 204.929688 L 286.574219 102.589844 C 286.625 101.925781 286.371094 101.261719 285.914062 100.753906 C 285.453125 100.242188 284.839844 99.9375 284.128906 99.9375 Z M 32.847656 126.351562 L 13.472656 126.351562 C 12.757812 126.351562 12.097656 126.65625 11.636719 127.117188 C 11.179688 127.625 10.925781 128.289062 10.925781 129.003906 L 14.035156 204.164062 C 14.085938 205.542969 15.207031 206.613281 16.582031 206.613281 C 16.582031 206.613281 16.632812 206.613281 16.632812 206.613281 L 36.011719 206.152344 C 36.671875 206.152344 37.335938 205.847656 37.796875 205.335938 C 38.253906 204.828125 38.507812 204.164062 38.457031 203.503906 L 35.398438 128.796875 C 35.347656 127.421875 34.175781 126.351562 32.847656 126.351562 Z M 34.632812 121.148438 C 35.347656 121.148438 36.011719 120.84375 36.46875 120.332031 C 36.929688 119.824219 37.183594 119.160156 37.183594 118.445312 L 36.113281 99.222656 C 36.0625 97.847656 34.890625 96.824219 33.511719 96.824219 L 10.261719 97.234375 C 9.546875 97.234375 8.933594 97.539062 8.425781 98.050781 C 7.964844 98.558594 7.710938 99.222656 7.761719 99.9375 L 8.679688 118.753906 C 8.730469 120.128906 9.851562 121.199219 11.230469 121.199219 L 34.632812 121.199219 Z M 213.148438 200.289062 L 155.125 200.289062 C 153.847656 200.289062 152.777344 201.207031 152.625 202.429688 C 152.421875 203.65625 153.1875 204.878906 154.359375 205.234375 L 166.289062 209.058594 C 166.546875 209.164062 166.800781 209.164062 167.054688 209.164062 C 167.054688 209.164062 167.105469 209.164062 167.105469 209.164062 L 210.5 207.988281 C 211.160156 207.988281 211.773438 207.683594 212.230469 207.277344 L 214.933594 204.625 C 215.648438 203.910156 215.902344 202.789062 215.496094 201.820312 C 215.136719 200.953125 214.167969 200.289062 213.148438 200.289062 Z M 167.972656 198.402344 L 183.933594 198.402344 C 185.359375 198.402344 186.480469 197.28125 186.480469 195.851562 L 186.480469 166.582031 C 198.976562 166.175781 209.886719 162.453125 209.886719 143.023438 L 209.886719 132.316406 C 209.886719 111.613281 197.394531 108.757812 183.933594 108.757812 L 167.972656 108.757812 C 166.546875 108.757812 165.421875 109.878906 165.421875 111.308594 L 165.421875 195.902344 C 165.421875 197.28125 166.546875 198.402344 167.972656 198.402344 Z M 226.558594 95.652344 L 191.886719 96.011719 C 191.632812 96.011719 191.378906 96.0625 191.121094 96.113281 L 176.4375 100.855469 C 175.265625 101.261719 174.5 102.433594 174.703125 103.660156 C 174.90625 104.882812 175.976562 105.851562 177.253906 105.800781 L 218.351562 105.597656 L 218.351562 153.988281 C 218.351562 154.039062 218.351562 154.039062 218.351562 154.089844 L 218.757812 165.871094 C 218.808594 167.246094 219.878906 168.316406 221.257812 168.316406 C 221.257812 168.316406 221.308594 168.316406 221.308594 168.316406 C 222.632812 168.316406 223.753906 167.296875 223.859375 165.972656 L 229.109375 98.40625 C 229.160156 97.691406 228.90625 96.980469 228.445312 96.46875 C 227.9375 95.960938 227.273438 95.652344 226.558594 95.652344 Z M 418.84375 104.730469 C 418.84375 103.351562 417.773438 102.230469 416.394531 102.179688 L 360.917969 100.394531 C 360.203125 100.394531 359.492188 100.652344 358.980469 101.160156 C 358.472656 101.671875 358.214844 102.382812 358.265625 103.097656 L 364.996094 205.441406 C 365.050781 206.101562 365.355469 206.765625 365.863281 207.171875 C 366.324219 207.582031 366.933594 207.785156 367.546875 207.785156 C 367.597656 207.785156 367.648438 207.785156 367.699219 207.785156 L 416.601562 204.523438 C 417.925781 204.421875 418.996094 203.296875 418.996094 201.972656 Z M 146.097656 151.644531 C 145.230469 149.808594 144.414062 147.972656 143.601562 146.1875 C 142.222656 143.230469 140.898438 140.425781 139.722656 137.671875 C 139.722656 137.671875 139.722656 137.621094 139.671875 137.621094 C 137.835938 133.695312 136.921875 129.613281 136.921875 125.433594 C 136.921875 121.914062 137.429688 121.199219 137.480469 121.148438 C 137.53125 121.097656 137.582031 121.046875 137.632812 120.996094 C 137.734375 120.84375 138.042969 120.4375 139.011719 120.4375 C 141.816406 120.4375 144.058594 129.511719 144.058594 140.730469 C 144.058594 142.160156 145.179688 143.28125 146.609375 143.28125 L 150.636719 143.28125 C 152.0625 143.28125 153.1875 142.160156 153.1875 140.730469 L 153.1875 119.621094 C 153.1875 119.058594 153.03125 118.550781 152.675781 118.140625 C 149.464844 113.753906 143.90625 112.175781 139.722656 112.175781 C 134.167969 112.175781 129.324219 114.0625 126.160156 117.527344 C 122.847656 120.539062 120.910156 124.769531 120.910156 129.207031 C 120.910156 133.796875 121.980469 138.386719 124.121094 142.820312 C 125.191406 145.117188 126.3125 147.511719 127.539062 150.0625 C 128.507812 152.152344 129.527344 154.242188 130.546875 156.4375 C 135.390625 166.378906 139.828125 177.191406 139.828125 189.019531 C 139.828125 196.515625 138.296875 198.097656 137.023438 198.097656 C 136.5625 198.097656 135.695312 198.097656 134.472656 196.210938 C 130.597656 188.765625 130.035156 179.332031 130.035156 171.121094 C 130.035156 169.695312 128.914062 168.574219 127.488281 168.574219 L 123.507812 168.574219 C 122.082031 168.574219 120.960938 169.695312 120.960938 171.121094 L 120.960938 198.554688 C 120.960938 199.21875 121.214844 199.882812 121.726562 200.339844 C 123 201.617188 124.375 202.636719 126.007812 203.449219 C 128.964844 205.285156 132.890625 206.308594 136.972656 206.308594 C 139.265625 206.308594 141.660156 206.050781 143.957031 205.492188 C 144.007812 205.492188 144.058594 205.441406 144.109375 205.441406 C 151.910156 203.042969 155.886719 196.769531 155.886719 186.878906 C 155.886719 173.621094 150.941406 161.636719 146.097656 151.644531 Z M 146.097656 151.644531 " fill-opacity="1" fill-rule="nonzero"/></g><path fill="#fbbe6b" d="M 326.804688 202.839844 C 319.207031 203.296875 306.972656 203.757812 299.222656 204.164062 C 296.976562 204.164062 297.285156 200.902344 297.742188 199.675781 C 298.507812 196.820312 300.140625 195.800781 302.078125 195.34375 C 306.410156 194.578125 309.367188 190.703125 309.0625 186.367188 L 307.429688 148.480469 C 307.125 142.972656 302.484375 138.792969 296.976562 139.097656 L 296.671875 139.097656 C 294.429688 139.097656 294.734375 135.835938 295.191406 134.613281 C 295.804688 132.671875 297.4375 130.429688 299.679688 130.277344 C 303.25 130.125 306.871094 130.175781 310.4375 129.816406 C 315.382812 129.359375 314.925781 132.519531 313.550781 135.476562 C 313.703125 136.652344 314.570312 137.261719 315.488281 137.261719 C 316.097656 137.261719 316.507812 136.957031 316.964844 136.5 C 321.453125 130.683594 322.777344 126.351562 330.375 127.269531 C 334.402344 127.574219 337.820312 130.226562 339.351562 134.152344 C 340.828125 138.945312 343.53125 146.289062 336.496094 150.265625 C 335.320312 150.929688 332.210938 152.457031 331.90625 147.511719 C 331.804688 146.035156 331.90625 142.820312 331.445312 141.445312 C 330.683594 137.417969 326.144531 138.027344 323.847656 140.679688 C 321.300781 143.535156 319.972656 144.25 319.515625 152.917969 C 319.515625 153.070312 319.363281 175.148438 319.972656 186.011719 C 320.28125 190.804688 324.867188 194.222656 329.609375 194.070312 C 331.855469 193.914062 334.25 195.191406 334.507812 199.066406 C 334.863281 203.503906 328.898438 202.839844 326.804688 202.839844 Z M 346.640625 116.867188 L 300.085938 122.679688 L 308.398438 118.90625 L 345.621094 113.601562 Z M 349.75 163.882812 L 354.546875 212.375 L 308.296875 216.710938 L 303.046875 215.179688 L 350.3125 208.90625 L 348.886719 169.898438 Z M 46.105469 106.054688 L 114.28125 106.054688 L 110.40625 207.480469 L 46.105469 207.480469 Z M 53.246094 137.824219 L 53.398438 137.824219 C 57.578125 137.058594 59.925781 140.679688 59.925781 145.421875 C 59.773438 156.589844 59.925781 167.808594 60.078125 178.976562 C 60.078125 180.605469 60.078125 182.085938 60.078125 183.769531 C 60.078125 185.707031 58.753906 187.492188 56.816406 187.492188 C 53.960938 187.492188 52.328125 188.917969 51.714844 191.46875 C 51.257812 192.792969 51.765625 196.261719 52.074219 197.484375 C 52.378906 198.503906 53.09375 199.574219 54.164062 199.574219 C 59.976562 199.574219 65.789062 199.269531 71.449219 198.402344 C 74 198.097656 76.648438 197.128906 76.804688 194.882812 C 76.957031 193.710938 77.414062 189.121094 76.648438 188.203125 C 75.886719 187.183594 74.609375 186.265625 73.539062 186.417969 L 73.386719 186.417969 C 71.753906 186.726562 70.886719 185.398438 70.785156 183.5625 C 70.632812 171.785156 70.683594 157.148438 70.632812 148.378906 C 70.632812 141.242188 71.246094 135.683594 76.957031 135.988281 C 78.027344 136.039062 79.046875 135.988281 80.066406 136.292969 C 81.085938 136.753906 82.003906 137.3125 82.921875 138.078125 C 85.777344 141.496094 86.644531 145.984375 87.410156 150.316406 C 88.019531 155.367188 87.867188 160.464844 88.019531 165.511719 C 88.019531 168.214844 88.019531 172.804688 88.171875 176.679688 C 88.171875 180.097656 88.222656 183.105469 85.828125 185.195312 C 84.503906 186.214844 83.429688 187.898438 82.972656 189.53125 C 82.667969 190.855469 82.207031 192.539062 82.667969 193.863281 C 82.972656 194.882812 83.585938 195.957031 84.757812 195.957031 C 90.265625 196.261719 95.925781 196.109375 101.480469 195.648438 C 102.808594 195.648438 104.746094 195.394531 105.816406 194.375 C 106.988281 193.355469 107.398438 192.589844 107.804688 191.109375 C 108.109375 189.9375 108.160156 186.828125 107.703125 185.65625 C 107.398438 184.636719 106.683594 183.410156 105.613281 183.5625 C 101.738281 183.871094 99.492188 180.453125 99.339844 176.273438 C 99.339844 171.785156 99.1875 166.429688 99.1875 162.859375 C 99.035156 155.261719 99.339844 147.511719 97.863281 140.015625 C 96.945312 134.507812 93.273438 127.320312 87.867188 124.820312 C 85.164062 123.648438 82.359375 123.648438 79.503906 124.210938 C 77.414062 124.667969 75.324219 125.6875 73.691406 127.066406 C 73.234375 127.371094 72.671875 127.523438 72.214844 127.523438 C 71.195312 127.523438 70.277344 126.910156 69.816406 125.890625 C 69.664062 125.585938 69.511719 125.28125 69.359375 124.972656 C 68.59375 123.953125 67.726562 123.800781 66.65625 123.953125 C 62.78125 124.566406 59.058594 125.28125 55.335938 125.890625 C 52.785156 126.199219 50.238281 130.839844 50.136719 133.03125 C 49.828125 137.875 52.226562 137.976562 53.246094 137.824219 Z M 53.246094 137.824219 " fill-opacity="1" fill-rule="nonzero"/><path fill="#bd4425" d="M 249.761719 101.261719 L 284.078125 102.433594 L 279.742188 204.777344 L 245.273438 203.859375 L 234.972656 200.75 L 236.757812 103.660156 Z M 268.574219 137.007812 C 261.589844 137.160156 254.910156 137.160156 247.925781 137.160156 C 245.679688 137.160156 242.570312 137.3125 241.855469 141.035156 C 241.550781 142.054688 241.855469 144.199219 242.164062 145.371094 C 242.46875 146.136719 243.082031 147.003906 243.949219 147.003906 C 244.96875 147.003906 246.703125 147.003906 247.722656 147.003906 C 250.984375 147.003906 251.648438 149.859375 251.800781 153.425781 C 251.800781 160.003906 251.953125 172.347656 252.105469 179.996094 C 252.105469 183.410156 252.566406 186.316406 249.761719 186.265625 C 247.925781 186.214844 242.367188 186.828125 242.46875 190.804688 C 242.519531 192.386719 242.46875 196.109375 244.867188 196.109375 C 252.464844 196.261719 260.0625 196.261719 267.710938 195.957031 C 269.953125 195.800781 273.011719 195.902344 273.164062 191.417969 C 273.367188 188.867188 273.472656 186.113281 268.472656 186.113281 C 259.550781 186.164062 261.335938 182.851562 261.335938 178.667969 C 261.183594 169.59375 261.03125 160.464844 261.03125 151.386719 C 260.875 148.992188 262.660156 147.054688 264.90625 146.902344 C 268.679688 146.644531 271.585938 148.53125 271.890625 141.699219 C 271.890625 137.773438 269.441406 137.007812 268.574219 137.007812 Z M 256.238281 110.289062 C 254.605469 110.441406 252.972656 110.898438 251.441406 112.074219 C 248.742188 114.46875 246.648438 118.496094 247.109375 122.679688 C 247.414062 126.097656 248.792969 128.289062 253.175781 129.410156 C 254.910156 129.871094 257.714844 129.714844 259.347656 128.953125 C 261.894531 127.929688 263.988281 125.535156 265.007812 122.527344 C 266.027344 119.824219 266.484375 116.101562 264.699219 113.703125 C 263.375 112.074219 261.84375 111.460938 260.214844 110.847656 C 258.9375 110.441406 257.5625 110.136719 256.238281 110.289062 Z M 34.632812 118.601562 L 11.230469 118.601562 L 10.3125 99.785156 L 33.5625 99.324219 Z M 32.847656 128.898438 L 35.960938 203.605469 L 16.582031 204.0625 L 13.421875 128.898438 Z M 32.847656 128.898438 " fill-opacity="1" fill-rule="nonzero"/><path fill="#e78f00" d="M 155.125 202.839844 L 213.148438 202.839844 L 210.449219 205.492188 L 167.054688 206.664062 Z M 183.933594 195.851562 L 167.972656 195.851562 L 167.972656 111.257812 L 183.933594 111.257812 C 199.128906 111.257812 207.335938 115.4375 207.335938 132.265625 L 207.335938 143.078125 C 207.335938 159.953125 199.128906 164.085938 183.933594 164.085938 Z M 191.9375 98.558594 L 226.609375 98.203125 L 225.335938 114.828125 L 224.417969 126.605469 L 223.398438 139.609375 L 221.972656 158.222656 L 221.359375 165.769531 L 220.953125 153.988281 L 220.953125 103.097656 L 177.253906 103.300781 Z M 183.933594 153.632812 C 189.59375 153.632812 191.378906 151.695312 191.378906 143.332031 L 191.378906 132.011719 C 191.378906 123.648438 189.59375 121.710938 183.933594 121.710938 Z M 183.933594 153.632812 " fill-opacity="1" fill-rule="nonzero"/><path fill="#64a29f" d="M 153.339844 186.878906 C 153.339844 194.324219 151.09375 200.59375 143.34375 202.992188 C 141.40625 203.449219 139.164062 203.757812 136.921875 203.757812 C 133.65625 203.757812 130.035156 202.992188 127.230469 201.207031 C 125.753906 200.441406 124.53125 199.574219 123.507812 198.503906 L 123.507812 171.070312 L 127.539062 171.070312 C 127.539062 179.894531 128.148438 189.582031 132.332031 197.484375 C 133.65625 199.574219 135.1875 200.59375 137.125 200.59375 C 142.324219 200.59375 142.476562 192.539062 142.476562 188.96875 C 142.476562 176.882812 138.144531 166.023438 132.941406 155.261719 C 130.699219 150.46875 128.457031 145.878906 126.519531 141.699219 C 124.425781 137.363281 123.507812 133.183594 123.507812 129.15625 C 123.507812 125.433594 125.140625 121.863281 127.996094 119.3125 C 131.003906 116.050781 135.441406 114.671875 139.773438 114.671875 C 143.804688 114.671875 148.289062 116.304688 150.6875 119.621094 L 150.6875 140.628906 L 146.660156 140.628906 C 146.660156 136.292969 146.199219 117.785156 139.0625 117.785156 C 137.582031 117.785156 136.359375 118.394531 135.644531 119.414062 C 134.726562 120.4375 134.472656 122.527344 134.472656 125.382812 C 134.472656 129.714844 135.390625 134.203125 137.480469 138.640625 C 139.417969 143.128906 141.660156 147.714844 143.90625 152.664062 C 149.003906 163.472656 153.339844 174.691406 153.339844 186.878906 Z M 416.292969 104.730469 L 416.445312 201.972656 L 367.546875 205.234375 L 360.816406 102.945312 Z M 408.238281 164.542969 L 407.625 163.777344 C 407.011719 163.167969 406.453125 163.167969 405.992188 163.933594 C 404.515625 165.871094 403.136719 167.5 401.355469 169.132812 C 400.4375 170.152344 399.417969 170.917969 398.242188 171.683594 C 397.222656 172.449219 396.152344 172.703125 395.285156 172.703125 C 394.367188 172.703125 393.347656 172.398438 392.277344 171.785156 C 389.882812 170.867188 387.636719 167.910156 386.769531 165.664062 C 386.003906 164.1875 385.75 162.554688 385.75 160.871094 L 385.75 151.183594 C 385.75 150.878906 385.902344 150.570312 386.210938 150.265625 C 392.023438 145.777344 403.800781 135.632812 405.738281 128.796875 C 406.351562 127.167969 406.65625 125.535156 406.65625 124.15625 C 406.65625 122.832031 406.503906 121.300781 406.042969 119.824219 C 405.738281 118.34375 405.128906 116.96875 404.261719 115.796875 C 403.34375 114.46875 402.324219 113.550781 400.84375 112.683594 C 399.363281 111.917969 397.582031 111.511719 395.335938 111.511719 C 394.316406 111.511719 392.941406 111.972656 391.308594 112.835938 C 382.335938 116.867188 371.625 131.757812 371.625 141.34375 L 371.625 168.214844 C 371.625 175.660156 376.113281 182.238281 382.792969 185.5 C 384.730469 186.265625 386.363281 186.675781 387.839844 186.675781 C 390.851562 186.675781 393.960938 183.972656 396.050781 182.035156 C 397.375 180.554688 398.753906 179.027344 400.078125 177.394531 C 401.40625 175.914062 402.78125 174.285156 403.800781 172.601562 C 404.972656 171.121094 405.890625 169.59375 406.808594 168.417969 C 407.574219 167.09375 408.136719 166.175781 408.59375 165.5625 C 408.695312 165.105469 408.695312 164.695312 408.238281 164.542969 Z M 385.699219 144.707031 L 385.699219 128.746094 C 385.699219 126.351562 386.71875 122.933594 389.726562 122.933594 C 393.144531 122.933594 393.910156 127.269531 393.910156 129.921875 C 393.910156 135.734375 390.902344 140.832031 387.484375 145.269531 C 386.871094 145.878906 386.464844 146.1875 386.160156 146.035156 C 385.851562 145.878906 385.699219 145.421875 385.699219 144.707031 Z M 385.699219 144.707031 " fill-opacity="1" fill-rule="nonzero"/></svg>