<svg xmlns="http://www.w3.org/2000/svg" xmlns:xlink="http://www.w3.org/1999/xlink" width="570" zoomAndPan="magnify" viewBox="0 0 427.5 314.999992" height="420" preserveAspectRatio="xMidYMid meet" version="1.0"><defs><clipPath id="a9aef1ed8d"><path d="M 41 30 L 386.425781 30 L 386.425781 285.664062 L 41 285.664062 Z M 41 30 " clip-rule="nonzero"/></clipPath><clipPath id="f1455b6a33"><path d="M 40.589844 29.601562 L 386.640625 29.601562 L 386.640625 285.664062 L 40.589844 285.664062 Z M 40.589844 29.601562 " clip-rule="nonzero"/></clipPath><clipPath id="e47a42fd61"><path d="M 275 29.546875 L 378 29.546875 L 378 53 L 275 53 Z M 275 29.546875 " clip-rule="nonzero"/></clipPath><clipPath id="e51c56a005"><path d="M 304 29.546875 L 333 29.546875 L 333 53 L 304 53 Z M 304 29.546875 " clip-rule="nonzero"/></clipPath><clipPath id="0ef9419847"><path d="M 330 29.546875 L 378 29.546875 L 378 52 L 330 52 Z M 330 29.546875 " clip-rule="nonzero"/></clipPath></defs><g clip-path="url(#a9aef1ed8d)"><path fill="#68aca4" d="M 360.25 259.414062 L 360.25 188.34375 L 376.769531 188.34375 L 376.769531 78.257812 L 49.867188 78.257812 L 49.867188 259.414062 Z M 47.949219 30.238281 L 379.277344 30.238281 C 383.09375 30.238281 386.214844 33.359375 386.214844 37.175781 L 386.214844 278.304688 C 386.214844 282.117188 383.09375 285.238281 379.277344 285.238281 L 47.949219 285.238281 C 44.132812 285.238281 41.015625 282.117188 41.015625 278.304688 L 41.015625 37.175781 C 41.015625 33.359375 44.132812 30.238281 47.949219 30.238281 " fill-opacity="1" fill-rule="evenodd"/></g><g clip-path="url(#f1455b6a33)"><path stroke-linecap="round" transform="matrix(0.0853924, 0, 0, -0.0854206, 40.588347, 285.665181)" fill="none" stroke-linejoin="round" d="M 3743.445338 307.31599 L 3743.445338 1139.320293 L 3936.899766 1139.320293 L 3936.899766 2428.071819 L 108.661238 2428.071819 L 108.661238 307.31599 Z M 86.20058 2990.225766 L 3966.267878 2990.225766 C 4010.960471 2990.225766 4047.510504 2953.687817 4047.510504 2909.01 L 4047.510504 86.167655 C 4047.510504 41.535568 4010.960471 4.997619 3966.267878 4.997619 L 86.20058 4.997619 C 41.507986 4.997619 5.003698 41.535568 5.003698 86.167655 L 5.003698 2909.01 C 5.003698 2953.687817 41.507986 2990.225766 86.20058 2990.225766 Z M 86.20058 2990.225766 " stroke="#737049" stroke-width="10.001" stroke-opacity="1" stroke-miterlimit="22.926001"/></g><path fill="#eec3bb" d="M 51.53125 59.902344 L 375.105469 59.902344 C 376.023438 59.902344 376.769531 60.652344 376.769531 61.570312 L 376.769531 78.257812 L 49.867188 78.257812 L 49.867188 61.570312 C 49.867188 60.652344 50.617188 59.902344 51.53125 59.902344 " fill-opacity="1" fill-rule="evenodd"/><path stroke-linecap="round" transform="matrix(0.0853924, 0, 0, -0.0854206, 40.588347, 285.665181)" fill="none" stroke-linejoin="round" d="M 128.148489 2642.955422 L 3917.412515 2642.955422 C 3928.162525 2642.955422 3936.899766 2634.175339 3936.899766 2623.428882 L 3936.899766 2428.072024 L 108.661238 2428.072024 L 108.661238 2623.428882 C 108.661238 2634.175339 117.444224 2642.955422 128.148489 2642.955422 Z M 128.148489 2642.955422 " stroke="#737049" stroke-width="10.001" stroke-opacity="1" stroke-miterlimit="22.926001"/><path fill="#fcf7f6" d="M 360.25 259.414062 L 376.769531 259.414062 L 376.769531 78.257812 L 360.25 78.257812 L 360.25 259.414062 " fill-opacity="1" fill-rule="evenodd"/><path stroke-linecap="round" transform="matrix(0.0853924, 0, 0, -0.0854206, 40.588347, 285.665181)" fill="none" stroke-linejoin="round" d="M 3743.445338 307.316016 L 3936.899766 307.316016 L 3936.899766 2428.072024 L 3743.445338 2428.072024 Z M 3743.445338 307.316016 " stroke="#737049" stroke-width="10.001" stroke-opacity="1" stroke-miterlimit="22.926001"/><path fill="#fcf7f6" d="M 49.867188 277.121094 L 360.25 277.121094 L 360.25 259.414062 L 49.867188 259.414062 L 49.867188 277.121094 " fill-opacity="1" fill-rule="evenodd"/><path stroke-linecap="round" transform="matrix(0.0853924, 0, 0, -0.0854206, 40.588347, 285.665181)" fill="none" stroke-linejoin="round" d="M 108.661238 100.023732 L 3743.445338 100.023732 L 3743.445338 307.316016 L 108.661238 307.316016 Z M 108.661238 100.023732 " stroke="#737049" stroke-width="10.001" stroke-opacity="1" stroke-miterlimit="22.926001"/><path stroke-linecap="round" transform="matrix(0.0853924, 0, 0, -0.0854206, 40.588347, 285.665181)" fill-opacity="1" fill="#e17e3f" fill-rule="evenodd" stroke-linejoin="round" d="M 233.041136 246.861483 L 238.256035 163.907985 L 177.781512 205.339004 Z M 233.041136 246.861483 " stroke="#737049" stroke-width="10.001" stroke-opacity="1" stroke-miterlimit="22.926001"/><path stroke-linecap="round" transform="matrix(0.0853924, 0, 0, -0.0854206, 40.588347, 285.665181)" fill-opacity="1" fill="#e17e3f" fill-rule="evenodd" stroke-linejoin="round" d="M 3631.187791 248.507748 L 3632.011196 157.871678 L 3691.616568 205.339004 Z M 3631.187791 248.507748 " stroke="#737049" stroke-width="10.001" stroke-opacity="1" stroke-miterlimit="22.926001"/><path stroke-linecap="round" transform="matrix(0.0853924, 0, 0, -0.0854206, 40.588347, 285.665181)" fill-opacity="1" fill="#e17e3f" fill-rule="evenodd" stroke-linejoin="round" d="M 3801.312411 412.677018 L 3888.547596 411.808156 L 3842.345427 360.408084 Z M 3801.312411 412.677018 " stroke="#737049" stroke-width="10.001" stroke-opacity="1" stroke-miterlimit="22.926001"/><path stroke-linecap="round" transform="matrix(0.0853924, 0, 0, -0.0854206, 40.588347, 285.665181)" fill-opacity="1" fill="#e17e3f" fill-rule="evenodd" stroke-linejoin="round" d="M 3839.509254 2371.961802 L 3791.61453 2308.854952 L 3888.776319 2309.312248 Z M 3839.509254 2371.961802 " stroke="#737049" stroke-width="10.001" stroke-opacity="1" stroke-miterlimit="22.926001"/><path fill="#eec3bb" d="M 276.863281 30.238281 L 376.5625 30.238281 C 376.628906 30.238281 376.699219 30.242188 376.769531 30.242188 L 376.652344 45.78125 C 376.652344 45.78125 376.945312 50.875 372.296875 51.023438 C 367.652344 51.171875 280.097656 51.617188 280.097656 51.617188 C 280.097656 51.617188 277.074219 51.617188 276.703125 49.65625 C 276.429688 48.207031 276.703125 36.285156 276.863281 30.238281 " fill-opacity="1" fill-rule="evenodd"/><g clip-path="url(#e47a42fd61)"><path stroke-linecap="round" transform="matrix(0.0853924, 0, 0, -0.0854206, 40.588347, 285.665181)" fill="none" stroke-linejoin="round" d="M 2766.932763 2990.226017 L 3934.475296 2990.226017 C 3935.252956 2990.226017 3936.076361 2990.180288 3936.899766 2990.180288 L 3935.527425 2808.267932 C 3935.527425 2808.267932 3938.958279 2748.636532 3884.52206 2746.898807 C 3830.131586 2745.161082 2804.809393 2739.947907 2804.809393 2739.947907 C 2804.809393 2739.947907 2769.402978 2739.947907 2765.05723 2762.904167 C 2761.855099 2779.86985 2765.05723 2919.436594 2766.932763 2990.226017 Z M 2766.932763 2990.226017 " stroke="#737049" stroke-width="15.001" stroke-opacity="1" stroke-miterlimit="22.926001"/></g><path fill="#eec3bb" d="M 305.378906 30.238281 L 331.410156 30.238281 L 332.15625 51.328125 C 322.933594 51.386719 313.398438 51.4375 305.042969 51.480469 L 305.378906 30.238281 " fill-opacity="1" fill-rule="evenodd"/><g clip-path="url(#e51c56a005)"><path stroke-linecap="round" transform="matrix(0.0853924, 0, 0, -0.0854206, 40.588347, 285.665181)" fill="none" stroke-linejoin="round" d="M 3100.869232 2990.226017 L 3405.712058 2990.226017 L 3414.449299 2743.331898 C 3306.446011 2742.645954 3194.783146 2742.051469 3096.935186 2741.548443 Z M 3100.869232 2990.226017 " stroke="#737049" stroke-width="15.001" stroke-opacity="1" stroke-miterlimit="22.926001"/></g><path fill="#e17e3f" d="M 331.410156 30.238281 L 376.5625 30.238281 C 376.628906 30.238281 376.699219 30.242188 376.769531 30.242188 L 376.652344 45.78125 C 376.652344 45.78125 376.945312 50.875 372.296875 51.023438 C 370.238281 51.089844 351.925781 51.210938 332.15625 51.328125 L 331.410156 30.238281 " fill-opacity="1" fill-rule="evenodd"/><g clip-path="url(#0ef9419847)"><path stroke-linecap="round" transform="matrix(0.0853924, 0, 0, -0.0854206, 40.588347, 285.665181)" fill="none" stroke-linejoin="round" d="M 3405.712058 2990.226017 L 3934.475296 2990.226017 C 3935.252956 2990.226017 3936.076361 2990.180288 3936.899766 2990.180288 L 3935.527425 2808.267932 C 3935.527425 2808.267932 3938.958279 2748.636532 3884.52206 2746.898807 C 3860.414592 2746.121403 3645.963336 2744.703786 3414.449299 2743.331898 Z M 3405.712058 2990.226017 " stroke="#737049" stroke-width="15.001" stroke-opacity="1" stroke-miterlimit="22.926001"/></g><path stroke-linecap="round" transform="matrix(0.0853924, 0, 0, -0.0854206, 40.588347, 285.665181)" fill="none" stroke-linejoin="round" d="M 3625.835659 2916.189792 L 3731.231497 2815.996235 " stroke="#eec3bb" stroke-width="15.001" stroke-opacity="1" stroke-miterlimit="22.926001"/><path stroke-linecap="round" transform="matrix(0.0853924, 0, 0, -0.0854206, 40.588347, 285.665181)" fill="none" stroke-linejoin="round" d="M 3628.443108 2818.602822 L 3723.454895 2912.760072 " stroke="#eec3bb" stroke-width="15.001" stroke-opacity="1" stroke-miterlimit="22.926001"/><path fill="#fcf7f6" d="M 315.925781 38.65625 L 315.722656 42.925781 L 321.402344 43.21875 L 321.476562 38.941406 Z M 313.878906 36.359375 L 323.691406 36.730469 L 323.835938 45.363281 L 313.363281 44.917969 L 313.878906 36.359375 " fill-opacity="1" fill-rule="evenodd"/><path stroke-linecap="round" transform="matrix(0.0853924, 0, 0, -0.0854206, 40.588347, 285.665181)" fill="none" stroke-linejoin="round" d="M 3224.379981 2891.678726 L 3222.001255 2841.696271 L 3288.51408 2838.266551 L 3289.38323 2888.340465 Z M 3200.409746 2918.567731 L 3315.320487 2914.223419 L 3317.013042 2813.161 L 3194.371443 2818.374174 Z M 3200.409746 2918.567731 " stroke="#737049" stroke-width="15.001" stroke-opacity="1" stroke-miterlimit="22.926001"/><path stroke-linecap="round" transform="matrix(0.0853924, 0, 0, -0.0854206, 40.588347, 285.665181)" fill="none" stroke-linejoin="round" d="M 2861.532848 2825.050696 L 3006.58936 2828.480416 " stroke="#737049" stroke-width="15.001" stroke-opacity="1" stroke-miterlimit="22.926001"/><path fill="#e17e3f" d="M 161.460938 70.453125 C 161.402344 70.410156 161.324219 70.394531 161.230469 70.394531 C 160.785156 70.394531 161.011719 70.75 160.132812 71.199219 C 159.902344 71.292969 159.664062 71.34375 159.394531 71.351562 C 159.011719 71.351562 158.714844 71.214844 158.527344 70.980469 C 158.273438 70.65625 158.128906 70.214844 158.113281 69.433594 C 158.113281 69.300781 158.140625 68.601562 158.140625 68.453125 C 158.25 68.453125 158.214844 68.441406 158.328125 68.441406 C 158.960938 68.441406 159.757812 68.527344 159.757812 67.976562 C 159.757812 67.710938 159.582031 67.527344 159.316406 67.527344 C 158.988281 67.550781 158.671875 67.5625 158.34375 67.5625 C 158.238281 67.5625 158.316406 67.546875 158.207031 67.546875 C 158.273438 66.730469 158.359375 66.476562 158.453125 65.664062 L 158.453125 65.636719 C 158.453125 65.390625 158.113281 65.195312 157.832031 65.230469 C 157.664062 65.246094 157.460938 65.382812 157.390625 65.671875 C 157.28125 66.109375 157.199219 66.714844 157.140625 67.535156 C 156.875 67.527344 156.644531 67.527344 156.386719 67.527344 C 156.15625 67.527344 155.960938 67.730469 155.960938 67.976562 C 155.960938 68.527344 156.671875 68.402344 157.101562 68.425781 C 157.101562 68.585938 157.089844 69.308594 157.09375 69.476562 C 157.164062 70.632812 157.417969 71.859375 158.511719 72.214844 C 158.789062 72.308594 159.121094 72.332031 159.394531 72.332031 C 160.324219 72.332031 161.292969 71.84375 161.65625 70.953125 C 161.664062 70.894531 161.671875 70.859375 161.671875 70.835938 C 161.671875 70.675781 161.589844 70.527344 161.460938 70.453125 Z M 152.191406 71.292969 C 151.554688 71.292969 150.394531 71.214844 150.394531 70.359375 C 150.394531 69.257812 151.742188 68.785156 152.871094 68.785156 C 152.960938 68.785156 153.03125 68.789062 153.121094 68.789062 C 153.234375 68.789062 153.332031 68.773438 153.4375 68.714844 L 153.4375 71.214844 C 153.410156 71.210938 153.371094 71.210938 153.320312 71.210938 C 152.917969 71.210938 152.554688 71.292969 152.191406 71.292969 Z M 153.945312 67.25 C 153.578125 67.25 153.4375 67.527344 153.4375 67.859375 C 153.265625 67.753906 153.0625 67.765625 152.871094 67.765625 C 151.386719 67.765625 149.375 68.453125 149.375 70.394531 C 149.375 71.519531 150.382812 72.308594 152.183594 72.308594 C 152.617188 72.308594 153.039062 72.265625 153.46875 72.199219 C 153.546875 72.394531 153.734375 72.515625 153.945312 72.515625 C 154.222656 72.515625 154.453125 72.285156 154.453125 72.003906 L 154.453125 67.753906 C 154.453125 67.476562 154.222656 67.25 153.945312 67.25 Z M 145.683594 67.113281 C 144.761719 67.113281 143.996094 67.578125 143.589844 68.460938 C 143.226562 67.710938 142.378906 67.222656 141.570312 67.222656 C 141.089844 67.222656 140.597656 67.382812 140.21875 67.679688 C 140.21875 67.546875 140.222656 67.382812 140.222656 67.222656 C 140.222656 66.796875 140.15625 66.363281 139.683594 66.363281 C 139.402344 66.363281 139.167969 66.605469 139.167969 66.898438 L 139.167969 71.757812 C 139.167969 72.054688 139.402344 72.292969 139.683594 72.292969 C 139.980469 72.292969 140.21875 72.054688 140.21875 71.757812 C 140.21875 71.410156 140.199219 71.070312 140.199219 70.730469 C 140.199219 69.78125 140.359375 68.28125 141.546875 68.28125 C 142.539062 68.28125 143.011719 69.316406 143.011719 70.75 C 143.011719 71.09375 142.988281 71.460938 142.945312 71.808594 C 142.972656 72.089844 143.148438 72.34375 143.480469 72.34375 C 144.054688 72.34375 144.0625 71.53125 144.132812 71.019531 C 144.234375 70.011719 144.25 68.171875 145.613281 68.171875 C 146.148438 68.171875 146.609375 68.613281 146.609375 70.484375 C 146.609375 70.953125 146.558594 71.410156 146.558594 71.875 C 146.558594 72.171875 146.8125 72.394531 147.070312 72.394531 C 147.390625 72.394531 147.609375 72.15625 147.609375 71.859375 C 147.632812 71.429688 147.660156 70.984375 147.660156 70.546875 C 147.660156 69.046875 147.421875 67.25 145.683594 67.113281 Z M 137.558594 67.816406 C 137.167969 67.035156 136.195312 67.113281 136.167969 67.113281 C 135.515625 67.113281 134.902344 67.308594 134.335938 67.644531 C 134.269531 67.1875 134.226562 66.6875 133.726562 66.6875 C 133.445312 66.6875 133.21875 66.933594 133.21875 67.203125 C 133.21875 67.339844 133.488281 68.628906 133.488281 68.714844 C 133.511719 68.992188 133.539062 69.207031 133.554688 69.417969 C 133.632812 70.207031 133.675781 70.980469 133.675781 71.78125 C 133.675781 72.0625 133.878906 72.300781 134.175781 72.300781 C 134.457031 72.300781 134.695312 72.0625 134.695312 71.78125 C 134.695312 70.792969 134.632812 69.800781 134.511719 68.804688 C 134.878906 68.375 135.34375 68.113281 135.886719 68.113281 C 136.117188 68.113281 136.71875 68.15625 136.71875 68.554688 C 136.792969 68.785156 136.980469 68.925781 137.210938 68.925781 C 137.472656 68.925781 137.730469 68.722656 137.730469 68.453125 C 137.730469 68.238281 137.667969 68.027344 137.558594 67.816406 Z M 130.578125 70.027344 C 130.484375 70.683594 130.050781 71.242188 129.230469 71.242188 C 128.3125 71.242188 127.363281 70.824219 127.363281 69.417969 C 127.363281 68.773438 127.652344 67.941406 128.796875 67.941406 C 129.304688 67.941406 130.582031 68.195312 130.582031 69.78125 C 130.582031 69.859375 130.582031 69.949219 130.578125 70.027344 Z M 131.40625 68.816406 C 131.09375 67.773438 130.242188 66.96875 129.03125 66.96875 C 127.730469 66.96875 126.804688 67.46875 126.507812 68.5625 C 126.429688 68.839844 126.398438 69.148438 126.398438 69.425781 C 126.398438 70.929688 127.140625 72.003906 128.839844 72.277344 C 128.964844 72.292969 129.082031 72.300781 129.203125 72.300781 C 130.304688 72.300781 131.550781 71.574219 131.550781 69.808594 C 131.550781 69.46875 131.507812 69.128906 131.40625 68.816406 Z M 125.941406 65.464844 C 125.847656 65.375 125.730469 65.324219 125.585938 65.3125 C 124.949219 65.289062 124.332031 65.257812 123.6875 65.257812 C 123.160156 65.257812 121.375 65.09375 121.375 65.832031 C 121.375 67.101562 121.5625 68.304688 121.5625 69.527344 C 121.5625 70.003906 121.539062 70.484375 121.539062 70.96875 C 121.539062 71.546875 121.457031 72.328125 122.078125 72.328125 C 122.347656 72.328125 122.585938 72.125 122.585938 71.84375 C 122.558594 71.539062 122.542969 71.230469 122.542969 70.917969 C 122.542969 70.402344 122.578125 69.882812 122.578125 69.367188 C 123.007812 69.332031 123.449219 69.332031 123.890625 69.332031 C 124.167969 69.332031 124.398438 69.113281 124.398438 68.851562 C 124.398438 68.578125 124.167969 68.359375 123.890625 68.359375 C 123.425781 68.359375 122.992188 68.359375 122.519531 68.394531 C 122.449219 67.679688 122.382812 66.957031 122.382812 66.273438 C 122.832031 66.246094 123.273438 66.238281 123.722656 66.238281 C 124.355469 66.238281 124.984375 66.289062 125.605469 66.289062 C 125.875 66.289062 126.09375 66.054688 126.09375 65.808594 C 126.09375 65.679688 126.042969 65.566406 125.941406 65.464844 " fill-opacity="1" fill-rule="evenodd"/><path fill="#e17e3f" d="M 195.59375 67.484375 C 195.515625 67.441406 195.433594 67.417969 195.339844 67.417969 C 195.210938 67.417969 194.964844 67.492188 194.898438 67.660156 C 194.738281 68.027344 194.585938 68.394531 194.425781 68.773438 C 194.261719 69.148438 194.152344 69.46875 194.074219 69.730469 C 194 69.996094 193.914062 70.265625 193.804688 70.539062 C 193.652344 70.25 193.484375 69.765625 193.261719 69.359375 C 193.039062 68.945312 192.761719 68.597656 192.378906 68.597656 C 192.167969 68.597656 191.921875 68.949219 191.769531 69.289062 C 191.582031 69.699219 191.421875 70.113281 191.285156 70.402344 C 190.957031 69.765625 190.566406 69.085938 190.304688 68.65625 C 190.179688 68.4375 190.046875 68.15625 189.921875 67.816406 C 189.855469 67.621094 189.558594 67.417969 189.289062 67.417969 C 189.007812 67.417969 188.777344 67.628906 188.777344 67.9375 C 188.777344 67.992188 188.789062 68.035156 188.792969 68.0625 C 188.929688 68.441406 189.050781 68.722656 189.144531 68.898438 L 189.523438 69.570312 C 189.683594 69.835938 189.878906 70.171875 190.117188 70.578125 C 190.363281 70.980469 190.574219 71.34375 190.753906 71.65625 C 191.03125 72.15625 191.234375 72.261719 191.339844 72.261719 C 191.746094 72.261719 191.890625 71.800781 192.007812 71.320312 C 192.117188 70.894531 192.347656 70.242188 192.464844 70.136719 C 192.617188 70.230469 192.898438 70.796875 193.082031 71.242188 C 193.3125 71.78125 193.535156 72.332031 193.882812 72.332031 C 194.023438 72.332031 194.222656 72.261719 194.316406 72.078125 C 194.507812 71.648438 194.636719 71.300781 194.695312 71.039062 C 194.753906 70.773438 194.816406 70.539062 194.871094 70.339844 C 194.933594 70.136719 195.058594 69.816406 195.238281 69.378906 C 195.421875 68.925781 195.617188 68.492188 195.832031 68.0625 C 195.839844 68.003906 195.847656 67.960938 195.847656 67.925781 C 195.847656 67.75 195.753906 67.578125 195.59375 67.484375 Z M 184.457031 68.15625 C 184.722656 68.011719 184.90625 67.9375 185.238281 67.9375 C 185.6875 67.9375 186.027344 68.027344 186.027344 68.664062 C 185.753906 69.308594 184.695312 69.121094 184.160156 69.257812 C 184.1875 68.867188 184.160156 68.425781 184.457031 68.15625 Z M 186.964844 70.910156 C 186.824219 70.910156 186.339844 71.300781 185.667969 71.300781 C 184.820312 71.300781 184.398438 70.960938 184.230469 70.226562 C 184.59375 70.226562 184.964844 70.164062 185.332031 70.105469 C 186.179688 69.972656 186.898438 69.636719 187.03125 68.691406 C 187.03125 67.832031 186.667969 66.941406 185.210938 66.941406 C 184.3125 66.941406 183.375 67.433594 183.238281 68.441406 C 183.195312 68.738281 183.152344 69.019531 183.152344 69.316406 C 183.152344 70.589844 183.378906 72.285156 185.660156 72.285156 C 186.167969 72.285156 187.476562 72.03125 187.476562 71.402344 C 187.476562 71.140625 187.261719 70.910156 186.964844 70.910156 Z M 179.96875 65.746094 C 179.96875 66.136719 180.179688 66.390625 180.519531 66.390625 C 180.859375 66.390625 181.195312 66.136719 181.195312 65.746094 C 181.195312 65.355469 180.910156 65.164062 180.570312 65.164062 C 180.230469 65.164062 179.96875 65.355469 179.96875 65.746094 Z M 181.105469 68.144531 C 181.0625 67.738281 181.027344 67.179688 180.511719 67.179688 C 180.230469 67.179688 180 67.410156 180 67.679688 C 180 67.890625 180.089844 68.140625 180.121094 68.367188 C 180.214844 68.976562 180.214844 69.800781 180.214844 70.402344 C 180.214844 70.867188 180.203125 71.308594 180.203125 71.777344 C 180.203125 72.054688 180.441406 72.285156 180.714844 72.285156 C 180.996094 72.285156 181.222656 72.054688 181.222656 71.777344 C 181.222656 71.335938 181.230469 70.894531 181.230469 70.453125 C 181.230469 69.742188 181.207031 68.851562 181.105469 68.144531 Z M 177.792969 65.273438 C 177.523438 65.214844 177.242188 65.351562 177.167969 65.625 C 176.871094 66.65625 176.480469 67.628906 176.082031 68.621094 C 175.78125 69.367188 175.523438 70.105469 175.226562 70.851562 C 174.734375 69.859375 174.472656 68.695312 174.175781 67.738281 C 173.945312 67.050781 173.679688 66.375 173.503906 65.664062 C 173.445312 65.433594 173.234375 65.289062 173.003906 65.289062 C 172.707031 65.289062 172.503906 65.542969 172.503906 65.8125 C 172.503906 65.839844 172.511719 65.875 172.519531 65.933594 C 172.800781 66.992188 173.207031 68.019531 173.503906 69.070312 C 173.785156 70.082031 174.175781 71.039062 174.625 71.941406 C 174.746094 72.183594 174.867188 72.34375 175.132812 72.34375 C 175.226562 72.34375 175.285156 72.355469 175.339844 72.355469 C 175.476562 72.355469 175.699219 72.261719 175.773438 72.101562 C 176.242188 71.140625 176.554688 70.15625 176.953125 69.171875 C 177.386719 68.078125 177.78125 67.011719 178.148438 65.898438 C 178.15625 65.855469 178.167969 65.824219 178.167969 65.761719 C 178.167969 65.535156 178.019531 65.339844 177.792969 65.273438 " fill-opacity="1" fill-rule="evenodd"/><path fill="#e17e3f" d="M 72.109375 68.15625 C 72.371094 68.011719 72.558594 67.9375 72.886719 67.9375 C 73.335938 67.9375 73.679688 68.027344 73.679688 68.664062 C 73.40625 69.308594 72.347656 69.121094 71.8125 69.257812 C 71.835938 68.867188 71.8125 68.425781 72.109375 68.15625 Z M 74.617188 70.910156 C 74.476562 70.910156 73.992188 71.300781 73.320312 71.300781 C 72.472656 71.300781 72.050781 70.960938 71.878906 70.226562 C 72.242188 70.226562 72.617188 70.164062 72.980469 70.105469 C 73.828125 69.972656 74.550781 69.636719 74.683594 68.691406 C 74.683594 67.832031 74.320312 66.941406 72.863281 66.941406 C 71.964844 66.941406 71.023438 67.433594 70.890625 68.441406 C 70.847656 68.738281 70.800781 69.019531 70.800781 69.316406 C 70.800781 70.589844 71.03125 72.285156 73.3125 72.285156 C 73.820312 72.285156 75.125 72.03125 75.125 71.402344 C 75.125 71.140625 74.914062 70.910156 74.617188 70.910156 Z M 68.863281 68.425781 C 68.859375 67.519531 68.847656 66.636719 68.847656 65.730469 C 68.847656 65.449219 68.621094 65.21875 68.339844 65.21875 C 68.0625 65.21875 67.832031 65.449219 67.832031 65.730469 C 67.832031 67.765625 67.878906 69.75 67.878906 71.78125 C 67.878906 72.054688 68.109375 72.292969 68.390625 72.292969 C 68.671875 72.292969 68.898438 72.054688 68.898438 71.78125 C 68.898438 70.65625 68.890625 69.554688 68.863281 68.425781 Z M 64.519531 65.746094 C 64.519531 66.136719 64.730469 66.390625 65.070312 66.390625 C 65.410156 66.390625 65.75 66.136719 65.75 65.746094 C 65.75 65.355469 65.457031 65.164062 65.121094 65.164062 C 64.78125 65.164062 64.519531 65.355469 64.519531 65.746094 Z M 65.65625 68.144531 C 65.613281 67.738281 65.578125 67.179688 65.0625 67.179688 C 64.78125 67.179688 64.554688 67.410156 64.554688 67.679688 C 64.554688 67.890625 64.636719 68.140625 64.671875 68.367188 C 64.765625 68.976562 64.765625 69.800781 64.765625 70.402344 C 64.765625 70.867188 64.753906 71.308594 64.753906 71.777344 C 64.753906 72.054688 64.996094 72.285156 65.265625 72.285156 C 65.546875 72.285156 65.773438 72.054688 65.773438 71.777344 C 65.773438 71.335938 65.78125 70.894531 65.78125 70.453125 C 65.78125 69.742188 65.753906 68.851562 65.65625 68.144531 Z M 62.878906 65.464844 C 62.785156 65.375 62.667969 65.324219 62.519531 65.3125 C 61.886719 65.289062 61.265625 65.257812 60.621094 65.257812 C 60.097656 65.257812 58.3125 65.09375 58.3125 65.832031 C 58.3125 67.101562 58.496094 68.304688 58.496094 69.527344 C 58.496094 70.003906 58.476562 70.484375 58.476562 70.96875 C 58.476562 71.546875 58.394531 72.328125 59.015625 72.328125 C 59.285156 72.328125 59.519531 72.125 59.519531 71.84375 C 59.496094 71.539062 59.476562 71.230469 59.476562 70.917969 C 59.476562 70.402344 59.511719 69.882812 59.511719 69.367188 C 59.945312 69.332031 60.386719 69.332031 60.824219 69.332031 C 61.105469 69.332031 61.335938 69.113281 61.335938 68.851562 C 61.335938 68.578125 61.105469 68.359375 60.824219 68.359375 C 60.363281 68.359375 59.929688 68.359375 59.453125 68.394531 C 59.382812 67.679688 59.316406 66.957031 59.316406 66.273438 C 59.769531 66.246094 60.207031 66.238281 60.65625 66.238281 C 61.292969 66.238281 61.917969 66.289062 62.539062 66.289062 C 62.808594 66.289062 63.03125 66.054688 63.03125 65.808594 C 63.03125 65.679688 62.980469 65.566406 62.878906 65.464844 " fill-opacity="1" fill-rule="evenodd"/><path fill="#e17e3f" d="M 109.460938 70.453125 C 109.40625 70.410156 109.328125 70.394531 109.234375 70.394531 C 108.785156 70.394531 109.015625 70.75 108.132812 71.199219 C 107.90625 71.292969 107.667969 71.34375 107.394531 71.351562 C 107.015625 71.351562 106.71875 71.214844 106.53125 70.980469 C 106.277344 70.65625 106.132812 70.214844 106.113281 69.433594 C 106.113281 69.300781 106.140625 68.601562 106.140625 68.453125 C 106.25 68.453125 106.21875 68.441406 106.328125 68.441406 C 106.964844 68.441406 107.757812 68.527344 107.757812 67.976562 C 107.757812 67.710938 107.582031 67.527344 107.316406 67.527344 C 106.988281 67.550781 106.675781 67.5625 106.34375 67.5625 C 106.242188 67.5625 106.316406 67.546875 106.210938 67.546875 C 106.277344 66.730469 106.359375 66.476562 106.453125 65.664062 L 106.453125 65.636719 C 106.453125 65.390625 106.113281 65.195312 105.835938 65.230469 C 105.667969 65.246094 105.464844 65.382812 105.394531 65.671875 C 105.285156 66.109375 105.199219 66.714844 105.140625 67.535156 C 104.875 67.527344 104.648438 67.527344 104.386719 67.527344 C 104.160156 67.527344 103.960938 67.730469 103.960938 67.976562 C 103.960938 68.527344 104.671875 68.402344 105.105469 68.425781 C 105.105469 68.585938 105.089844 69.308594 105.097656 69.476562 C 105.167969 70.632812 105.417969 71.859375 106.515625 72.214844 C 106.792969 72.308594 107.125 72.332031 107.394531 72.332031 C 108.328125 72.332031 109.292969 71.84375 109.660156 70.953125 C 109.667969 70.894531 109.675781 70.859375 109.675781 70.835938 C 109.675781 70.675781 109.589844 70.527344 109.460938 70.453125 Z M 100.886719 65.746094 C 100.886719 66.136719 101.101562 66.390625 101.441406 66.390625 C 101.777344 66.390625 102.117188 66.136719 102.117188 65.746094 C 102.117188 65.355469 101.832031 65.164062 101.492188 65.164062 C 101.148438 65.164062 100.886719 65.355469 100.886719 65.746094 Z M 102.023438 68.144531 C 101.980469 67.738281 101.949219 67.179688 101.429688 67.179688 C 101.148438 67.179688 100.921875 67.410156 100.921875 67.679688 C 100.921875 67.890625 101.007812 68.140625 101.039062 68.367188 C 101.132812 68.976562 101.132812 69.800781 101.132812 70.402344 C 101.132812 70.867188 101.125 71.308594 101.125 71.777344 C 101.125 72.054688 101.363281 72.285156 101.632812 72.285156 C 101.914062 72.285156 102.144531 72.054688 102.144531 71.777344 C 102.144531 71.335938 102.152344 70.894531 102.152344 70.453125 C 102.152344 69.742188 102.125 68.851562 102.023438 68.144531 Z M 97.035156 71.257812 C 96.878906 71.277344 96.726562 71.285156 96.578125 71.285156 C 95.796875 71.285156 94.898438 71.046875 94.898438 69.945312 C 94.898438 69.519531 95.074219 69.019531 96.566406 68.816406 C 97.042969 68.746094 97.535156 68.746094 98.007812 68.65625 C 98.019531 68.734375 98.019531 68.804688 98.019531 68.875 C 98.023438 69.582031 98.042969 70.265625 98.042969 70.980469 C 97.769531 71.140625 97.375 71.214844 97.035156 71.257812 Z M 99.003906 65.71875 C 99.003906 65.460938 98.773438 65.230469 98.492188 65.230469 C 98.210938 65.230469 97.976562 65.460938 97.976562 65.71875 C 97.976562 66.375 97.984375 67.027344 98 67.679688 C 97.898438 67.679688 97.796875 67.6875 97.695312 67.710938 C 96.214844 67.882812 93.871094 67.820312 93.871094 70.011719 C 93.914062 71.199219 94.703125 72.265625 96.527344 72.265625 C 97.078125 72.265625 97.617188 72.199219 98.128906 72.003906 C 98.222656 72.167969 98.363281 72.242188 98.570312 72.242188 C 98.847656 72.242188 99.074219 72.019531 99.074219 71.75 C 99.074219 69.742188 99.003906 67.75 99.003906 65.71875 Z M 92.203125 71.417969 C 92.105469 71.320312 91.976562 71.277344 91.839844 71.265625 C 90.78125 71.210938 89.722656 71.230469 88.660156 71.210938 C 88.679688 70.910156 88.6875 70.613281 88.6875 70.308594 C 88.6875 70.070312 88.679688 69.835938 88.679688 69.585938 L 90.1875 69.585938 C 90.460938 69.585938 90.707031 69.367188 90.707031 69.070312 C 90.707031 68.800781 90.460938 68.5625 90.1875 68.5625 L 88.636719 68.5625 C 88.628906 68.546875 88.628906 68.519531 88.628906 68.492188 C 88.585938 67.738281 88.542969 67 88.519531 66.253906 C 89.628906 66.265625 90.707031 66.308594 91.800781 66.308594 C 92.09375 66.308594 92.3125 66.066406 92.3125 65.789062 C 92.3125 65.511719 92.09375 65.28125 91.800781 65.28125 C 90.578125 65.28125 89.390625 65.230469 88.179688 65.230469 C 87.832031 65.230469 87.492188 65.40625 87.492188 65.773438 C 87.492188 67.296875 87.652344 68.773438 87.652344 70.273438 C 87.652344 70.757812 87.605469 71.214844 87.605469 71.691406 C 87.605469 72.128906 88.136719 72.234375 88.453125 72.234375 C 89.527344 72.261719 90.570312 72.222656 91.652344 72.285156 C 92.027344 72.285156 92.359375 72.214844 92.359375 71.78125 C 92.359375 71.640625 92.308594 71.519531 92.203125 71.417969 " fill-opacity="1" fill-rule="evenodd"/><path fill="#e17e3f" d="M 229.015625 70.460938 C 228.910156 71.105469 228.117188 71.351562 226.597656 71.25 C 226.53125 70.335938 226.523438 69.597656 226.480469 68.671875 C 226.71875 68.613281 226.964844 68.601562 227.210938 68.601562 C 228.328125 68.601562 229.023438 69.195312 229.023438 70.226562 C 229.023438 70.300781 229.023438 70.367188 229.015625 70.460938 Z M 229.703125 68.816406 C 229.175781 67.976562 228.226562 67.585938 227.175781 67.585938 C 226.910156 67.585938 226.648438 67.621094 226.375 67.660156 C 226.328125 67.410156 226.253906 67.078125 225.851562 67.078125 C 225.582031 67.078125 225.351562 67.324219 225.351562 67.59375 C 225.351562 67.65625 225.351562 67.738281 225.378906 67.800781 C 225.539062 69.128906 225.507812 70.46875 225.597656 71.808594 C 225.605469 71.96875 225.605469 72.128906 225.605469 72.292969 C 225.605469 72.699219 225.589844 73.109375 225.589844 73.515625 C 225.589844 74.191406 225.539062 75.421875 226.242188 75.421875 C 226.617188 75.421875 226.695312 75.160156 226.695312 74.878906 C 226.695312 74.402344 226.605469 74.003906 226.605469 73.539062 C 226.605469 73.0625 226.632812 72.722656 226.640625 72.277344 C 227.964844 72.277344 230.039062 72.453125 230.039062 70.199219 C 230.039062 69.722656 229.945312 69.246094 229.703125 68.816406 Z M 223.382812 68.425781 C 223.371094 67.519531 223.363281 66.636719 223.363281 65.730469 C 223.363281 65.449219 223.132812 65.21875 222.855469 65.21875 C 222.574219 65.21875 222.347656 65.449219 222.347656 65.730469 C 222.347656 67.765625 222.398438 69.75 222.398438 71.78125 C 222.398438 72.054688 222.628906 72.292969 222.90625 72.292969 C 223.183594 72.292969 223.414062 72.054688 223.414062 71.78125 C 223.414062 70.65625 223.40625 69.554688 223.382812 68.425781 Z M 217.675781 68.15625 C 217.941406 68.011719 218.128906 67.9375 218.457031 67.9375 C 218.910156 67.9375 219.25 68.027344 219.25 68.664062 C 218.976562 69.308594 217.914062 69.121094 217.378906 69.257812 C 217.40625 68.867188 217.378906 68.425781 217.675781 68.15625 Z M 220.1875 70.910156 C 220.042969 70.910156 219.5625 71.300781 218.890625 71.300781 C 218.042969 71.300781 217.621094 70.960938 217.449219 70.226562 C 217.8125 70.226562 218.1875 70.164062 218.550781 70.105469 C 219.398438 69.972656 220.117188 69.636719 220.257812 68.691406 C 220.257812 67.832031 219.890625 66.941406 218.433594 66.941406 C 217.535156 66.941406 216.59375 67.433594 216.457031 68.441406 C 216.417969 68.738281 216.375 69.019531 216.375 69.316406 C 216.375 70.589844 216.601562 72.285156 218.882812 72.285156 C 219.390625 72.285156 220.695312 72.03125 220.695312 71.402344 C 220.695312 71.140625 220.484375 70.910156 220.1875 70.910156 Z M 214.65625 68.722656 C 214.59375 67.710938 214.554688 66.730469 214.496094 65.71875 C 214.46875 65.449219 214.265625 65.230469 213.984375 65.230469 C 213.707031 65.230469 213.476562 65.460938 213.476562 65.71875 L 213.605469 68.003906 C 212.554688 68.003906 211.519531 68.070312 210.46875 68.070312 C 210.4375 67.253906 210.4375 66.40625 210.300781 65.601562 C 210.230469 65.390625 210.035156 65.238281 209.804688 65.238281 C 209.5625 65.238281 209.296875 65.449219 209.296875 65.695312 L 209.296875 65.730469 C 209.441406 67.121094 209.5 68.507812 209.5 69.875 C 209.5 70.511719 209.457031 71.121094 209.457031 71.742188 C 209.457031 72.003906 209.695312 72.214844 209.96875 72.214844 C 210.230469 72.214844 210.476562 72.019531 210.476562 71.726562 C 210.507812 71.117188 210.519531 70.523438 210.519531 69.910156 C 210.519531 69.613281 210.507812 69.351562 210.503906 69.054688 C 211.519531 69.019531 212.511719 68.988281 213.527344 68.988281 C 213.570312 68.988281 213.605469 68.976562 213.648438 68.96875 C 213.679688 69.894531 213.707031 70.824219 213.730469 71.75 C 213.742188 72.011719 213.960938 72.242188 214.242188 72.242188 C 214.519531 72.242188 214.75 72.011719 214.75 71.75 C 214.75 70.730469 214.683594 69.742188 214.65625 68.722656 " fill-opacity="1" fill-rule="evenodd"/><path fill="#fcf7f6" d="M 229.847656 48.199219 C 229.675781 48.21875 229.503906 48.230469 229.332031 48.230469 C 228.453125 48.230469 227.4375 47.960938 227.4375 46.71875 C 227.4375 46.238281 227.636719 45.671875 229.320312 45.445312 C 229.859375 45.371094 230.414062 45.371094 230.949219 45.261719 C 230.960938 45.347656 230.960938 45.4375 230.960938 45.511719 C 230.964844 46.308594 230.988281 47.082031 230.988281 47.886719 C 230.679688 48.066406 230.234375 48.152344 229.847656 48.199219 Z M 232.066406 41.953125 C 232.066406 41.65625 231.808594 41.394531 231.492188 41.394531 C 231.179688 41.394531 230.910156 41.65625 230.910156 41.953125 C 230.910156 42.6875 230.921875 43.425781 230.941406 44.160156 C 230.824219 44.160156 230.710938 44.171875 230.597656 44.203125 C 228.921875 44.390625 226.28125 44.324219 226.28125 46.792969 C 226.332031 48.132812 227.21875 49.339844 229.277344 49.339844 C 229.894531 49.339844 230.507812 49.261719 231.082031 49.042969 C 231.1875 49.226562 231.351562 49.308594 231.582031 49.308594 C 231.898438 49.308594 232.152344 49.0625 232.152344 48.757812 C 232.152344 46.488281 232.066406 44.238281 232.066406 41.953125 Z M 221.816406 48.238281 C 221.101562 48.238281 219.785156 48.152344 219.785156 47.1875 C 219.785156 45.941406 221.308594 45.40625 222.582031 45.40625 C 222.683594 45.40625 222.765625 45.414062 222.867188 45.414062 C 222.992188 45.414062 223.109375 45.394531 223.222656 45.328125 L 223.222656 48.152344 C 223.195312 48.144531 223.144531 48.144531 223.085938 48.144531 C 222.636719 48.144531 222.226562 48.238281 221.816406 48.238281 Z M 223.796875 43.675781 C 223.382812 43.675781 223.222656 43.992188 223.222656 44.363281 C 223.03125 44.25 222.800781 44.257812 222.582031 44.257812 C 220.90625 44.257812 218.636719 45.03125 218.636719 47.222656 C 218.636719 48.496094 219.777344 49.386719 221.808594 49.386719 C 222.292969 49.386719 222.769531 49.339844 223.261719 49.261719 C 223.34375 49.484375 223.558594 49.617188 223.796875 49.617188 C 224.113281 49.617188 224.367188 49.359375 224.367188 49.042969 L 224.367188 44.25 C 224.367188 43.929688 224.113281 43.675781 223.796875 43.675781 Z M 215.667969 47.300781 C 215.550781 48.027344 214.652344 48.304688 212.941406 48.191406 C 212.863281 47.15625 212.855469 46.324219 212.804688 45.28125 C 213.074219 45.214844 213.351562 45.207031 213.628906 45.207031 C 214.890625 45.207031 215.675781 45.875 215.675781 47.035156 C 215.675781 47.121094 215.675781 47.195312 215.667969 47.300781 Z M 216.441406 45.445312 C 215.847656 44.5 214.777344 44.058594 213.589844 44.058594 C 213.292969 44.058594 212.996094 44.09375 212.691406 44.140625 C 212.632812 43.855469 212.546875 43.484375 212.097656 43.484375 C 211.789062 43.484375 211.53125 43.761719 211.53125 44.066406 C 211.53125 44.132812 211.53125 44.226562 211.5625 44.292969 C 211.742188 45.800781 211.707031 47.3125 211.808594 48.824219 C 211.820312 49.007812 211.820312 49.1875 211.820312 49.371094 C 211.820312 49.828125 211.800781 50.289062 211.800781 50.75 C 211.800781 51.511719 211.742188 52.898438 212.539062 52.898438 C 212.957031 52.898438 213.042969 52.601562 213.042969 52.285156 C 213.042969 51.753906 212.949219 51.300781 212.949219 50.773438 C 212.949219 50.238281 212.976562 49.855469 212.988281 49.351562 C 214.480469 49.351562 216.824219 49.550781 216.824219 47.003906 C 216.824219 46.46875 216.71875 45.933594 216.441406 45.445312 Z M 206.371094 44.699219 C 206.667969 44.535156 206.875 44.449219 207.25 44.449219 C 207.757812 44.449219 208.140625 44.554688 208.140625 45.273438 C 207.832031 46 206.636719 45.789062 206.03125 45.941406 C 206.0625 45.503906 206.03125 45.003906 206.371094 44.699219 Z M 209.203125 47.808594 C 209.039062 47.808594 208.496094 48.25 207.738281 48.25 C 206.78125 48.25 206.304688 47.863281 206.113281 47.035156 C 206.523438 47.035156 206.941406 46.964844 207.355469 46.902344 C 208.3125 46.742188 209.125 46.375 209.277344 45.300781 C 209.277344 44.335938 208.867188 43.332031 207.21875 43.332031 C 206.207031 43.332031 205.144531 43.882812 204.992188 45.023438 C 204.945312 45.359375 204.894531 45.671875 204.894531 46.011719 C 204.894531 47.445312 205.15625 49.359375 207.726562 49.359375 C 208.300781 49.359375 209.773438 49.074219 209.773438 48.363281 C 209.773438 48.066406 209.535156 47.808594 209.203125 47.808594 Z M 203.015625 47.292969 C 202.945312 47.246094 202.859375 47.222656 202.757812 47.222656 C 202.25 47.222656 202.507812 47.628906 201.511719 48.132812 C 201.253906 48.238281 200.984375 48.296875 200.679688 48.304688 C 200.25 48.304688 199.914062 48.152344 199.703125 47.886719 C 199.414062 47.523438 199.253906 47.023438 199.234375 46.144531 C 199.234375 45.988281 199.265625 45.207031 199.265625 45.03125 C 199.386719 45.03125 199.351562 45.023438 199.476562 45.023438 C 200.191406 45.023438 201.09375 45.117188 201.09375 44.5 C 201.09375 44.203125 200.890625 43.992188 200.59375 43.992188 C 200.222656 44.019531 199.863281 44.027344 199.496094 44.027344 C 199.378906 44.027344 199.464844 44.007812 199.339844 44.007812 C 199.414062 43.089844 199.511719 42.804688 199.617188 41.886719 L 199.617188 41.855469 C 199.617188 41.578125 199.234375 41.359375 198.917969 41.394531 C 198.726562 41.414062 198.496094 41.570312 198.421875 41.890625 C 198.296875 42.394531 198.199219 43.070312 198.132812 43.996094 C 197.835938 43.992188 197.582031 43.992188 197.285156 43.992188 C 197.023438 43.992188 196.804688 44.21875 196.804688 44.5 C 196.804688 45.117188 197.609375 44.976562 198.097656 45.003906 C 198.097656 45.1875 198.078125 46 198.085938 46.191406 C 198.164062 47.492188 198.449219 48.878906 199.683594 49.285156 C 200 49.386719 200.371094 49.417969 200.679688 49.417969 C 201.734375 49.417969 202.824219 48.863281 203.234375 47.855469 C 203.242188 47.789062 203.253906 47.75 203.253906 47.722656 C 203.253906 47.542969 203.15625 47.378906 203.015625 47.292969 Z M 193.332031 41.980469 C 193.332031 42.417969 193.574219 42.707031 193.957031 42.707031 C 194.339844 42.707031 194.722656 42.417969 194.722656 41.980469 C 194.722656 41.539062 194.398438 41.320312 194.015625 41.320312 C 193.628906 41.320312 193.332031 41.539062 193.332031 41.980469 Z M 194.617188 44.6875 C 194.566406 44.226562 194.53125 43.597656 193.949219 43.597656 C 193.628906 43.597656 193.375 43.855469 193.375 44.160156 C 193.375 44.402344 193.46875 44.679688 193.507812 44.933594 C 193.609375 45.625 193.609375 46.554688 193.609375 47.234375 C 193.609375 47.761719 193.605469 48.257812 193.605469 48.785156 C 193.605469 49.101562 193.871094 49.359375 194.179688 49.359375 C 194.492188 49.359375 194.75 49.101562 194.75 48.785156 C 194.75 48.289062 194.761719 47.789062 194.761719 47.292969 C 194.761719 46.488281 194.730469 45.484375 194.617188 44.6875 Z M 191.308594 44.316406 C 190.867188 43.433594 189.769531 43.519531 189.742188 43.519531 C 189.003906 43.519531 188.3125 43.742188 187.671875 44.125 C 187.597656 43.609375 187.550781 43.039062 186.984375 43.039062 C 186.667969 43.039062 186.414062 43.320312 186.414062 43.628906 C 186.414062 43.777344 186.714844 45.234375 186.714844 45.328125 C 186.746094 45.644531 186.777344 45.882812 186.792969 46.125 C 186.878906 47.015625 186.925781 47.886719 186.925781 48.792969 C 186.925781 49.109375 187.15625 49.375 187.492188 49.375 C 187.808594 49.375 188.078125 49.109375 188.078125 48.792969 C 188.078125 47.675781 188.011719 46.554688 187.875 45.4375 C 188.289062 44.945312 188.8125 44.648438 189.425781 44.648438 C 189.679688 44.648438 190.363281 44.699219 190.363281 45.144531 C 190.449219 45.40625 190.660156 45.570312 190.917969 45.570312 C 191.210938 45.570312 191.5 45.339844 191.5 45.03125 C 191.5 44.792969 191.433594 44.554688 191.308594 44.316406 Z M 182.472656 45.078125 C 182.308594 45.570312 182.03125 46.324219 181.773438 47.0625 C 181.398438 46.101562 181.007812 45.144531 180.578125 44.203125 C 180.492188 43.960938 180.261719 43.808594 180.015625 43.796875 C 179.753906 43.789062 179.488281 43.941406 179.410156 44.203125 C 179.007812 45.109375 178.652344 46.027344 178.320312 46.949219 C 178.078125 46.246094 177.957031 45.578125 177.8125 45.117188 C 177.460938 44.019531 176.953125 42.898438 176.523438 41.816406 C 176.4375 41.519531 176.117188 41.359375 175.8125 41.433594 C 175.523438 41.519531 175.324219 41.84375 175.421875 42.144531 C 175.84375 43.203125 176.378906 44.324219 176.703125 45.425781 C 176.941406 46.210938 177.171875 47.15625 177.46875 48.027344 C 177.613281 48.449219 177.691406 49.1875 178.125 49.320312 C 178.195312 49.339844 178.261719 49.351562 178.332031 49.339844 C 178.375 49.339844 178.414062 49.328125 178.464844 49.320312 C 178.671875 49.261719 178.835938 49.0625 178.863281 48.84375 C 179.152344 47.980469 178.875 48.8125 179.238281 47.773438 C 179.46875 47.070312 179.722656 46.363281 180.003906 45.671875 C 180.300781 46.363281 180.578125 47.0625 180.835938 47.773438 C 181.230469 48.851562 180.890625 47.894531 181.265625 48.945312 C 181.351562 49.207031 181.601562 49.359375 181.871094 49.339844 C 182.097656 49.328125 182.308594 49.1875 182.375 48.945312 C 182.683594 47.894531 183.257812 46.46875 183.582031 45.386719 C 183.90625 44.285156 184.300781 43.203125 184.722656 42.144531 C 184.816406 41.84375 184.613281 41.519531 184.328125 41.433594 C 184.019531 41.359375 183.707031 41.519531 183.621094 41.816406 C 183.191406 42.898438 182.828125 43.980469 182.472656 45.078125 Z M 169.144531 45.386719 C 168.582031 45.386719 168.03125 45.347656 167.460938 45.347656 C 166.992188 45.347656 166.445312 45.375 166.445312 45.941406 C 166.445312 46.59375 167.203125 46.496094 167.585938 46.496094 C 168.160156 46.496094 168.695312 46.535156 169.265625 46.535156 C 169.726562 46.535156 170.292969 46.527344 170.292969 45.941406 C 170.292969 45.292969 169.5625 45.386719 169.144531 45.386719 Z M 161.410156 47.292969 C 161.34375 47.246094 161.261719 47.222656 161.15625 47.222656 C 160.648438 47.222656 160.90625 47.628906 159.910156 48.132812 C 159.652344 48.238281 159.382812 48.296875 159.082031 48.304688 C 158.648438 48.304688 158.3125 48.152344 158.101562 47.886719 C 157.816406 47.523438 157.652344 47.023438 157.636719 46.144531 C 157.636719 45.988281 157.664062 45.207031 157.664062 45.03125 C 157.785156 45.03125 157.75 45.023438 157.871094 45.023438 C 158.589844 45.023438 159.492188 45.117188 159.492188 44.5 C 159.492188 44.203125 159.289062 43.992188 158.992188 43.992188 C 158.621094 44.019531 158.265625 44.027344 157.894531 44.027344 C 157.777344 44.027344 157.867188 44.007812 157.738281 44.007812 C 157.816406 43.089844 157.914062 42.804688 158.015625 41.886719 L 158.015625 41.855469 C 158.015625 41.578125 157.636719 41.359375 157.320312 41.394531 C 157.128906 41.414062 156.898438 41.570312 156.820312 41.890625 C 156.695312 42.394531 156.601562 43.070312 156.535156 43.996094 C 156.238281 43.992188 155.976562 43.992188 155.679688 43.992188 C 155.425781 43.992188 155.203125 44.21875 155.203125 44.5 C 155.203125 45.117188 156.007812 44.976562 156.496094 45.003906 C 156.496094 45.1875 156.476562 46 156.484375 46.191406 C 156.5625 47.492188 156.847656 48.878906 158.082031 49.285156 C 158.398438 49.386719 158.773438 49.417969 159.082031 49.417969 C 160.132812 49.417969 161.222656 48.863281 161.636719 47.855469 C 161.640625 47.789062 161.652344 47.75 161.652344 47.722656 C 161.652344 47.542969 161.554688 47.378906 161.410156 47.292969 Z M 152.980469 45.589844 C 152.640625 44.636719 152.046875 43.777344 150.59375 43.652344 C 150.050781 43.617188 149.523438 43.808594 148.996094 43.996094 C 148.949219 43.5 148.949219 42.746094 148.347656 42.746094 C 148.050781 42.746094 147.800781 43.023438 147.800781 43.332031 C 147.800781 45.128906 147.871094 46.90625 147.871094 48.71875 C 147.871094 49.054688 148.121094 49.308594 148.421875 49.308594 C 148.71875 49.308594 148.96875 49.054688 148.96875 48.71875 C 148.96875 47.035156 148.289062 44.570312 150.578125 44.800781 C 151.582031 44.929688 152.164062 45.800781 152.164062 48.71875 C 152.164062 49.054688 152.414062 49.308594 152.71875 49.308594 C 153.027344 49.308594 153.277344 49.054688 153.277344 48.71875 C 153.277344 47.695312 153.28125 46.742188 152.980469 45.589844 Z M 142.726562 44.699219 C 143.019531 44.535156 143.234375 44.449219 143.605469 44.449219 C 144.113281 44.449219 144.492188 44.554688 144.492188 45.273438 C 144.1875 46 142.992188 45.789062 142.390625 45.941406 C 142.417969 45.503906 142.390625 45.003906 142.726562 44.699219 Z M 145.558594 47.808594 C 145.394531 47.808594 144.847656 48.25 144.09375 48.25 C 143.136719 48.25 142.65625 47.863281 142.464844 47.035156 C 142.875 47.035156 143.300781 46.964844 143.710938 46.902344 C 144.667969 46.742188 145.480469 46.375 145.632812 45.300781 C 145.632812 44.335938 145.21875 43.332031 143.578125 43.332031 C 142.5625 43.332031 141.5 43.882812 141.347656 45.023438 C 141.296875 45.359375 141.25 45.671875 141.25 46.011719 C 141.25 47.445312 141.507812 49.359375 144.082031 49.359375 C 144.65625 49.359375 146.132812 49.074219 146.132812 48.363281 C 146.132812 48.066406 145.890625 47.808594 145.558594 47.808594 Z M 137.066406 43.519531 C 136.019531 43.519531 135.160156 44.046875 134.699219 45.042969 C 134.289062 44.203125 133.332031 43.644531 132.425781 43.644531 C 131.878906 43.644531 131.324219 43.828125 130.894531 44.160156 C 130.894531 44.007812 130.902344 43.828125 130.902344 43.644531 C 130.902344 43.167969 130.824219 42.679688 130.289062 42.679688 C 129.972656 42.679688 129.707031 42.945312 129.707031 43.28125 L 129.707031 48.765625 C 129.707031 49.101562 129.972656 49.371094 130.289062 49.371094 C 130.625 49.371094 130.894531 49.101562 130.894531 48.765625 C 130.894531 48.371094 130.875 47.988281 130.875 47.609375 C 130.875 46.535156 131.054688 44.84375 132.394531 44.84375 C 133.511719 44.84375 134.050781 46.011719 134.050781 47.628906 C 134.050781 48.019531 134.019531 48.433594 133.972656 48.824219 C 134.003906 49.140625 134.203125 49.425781 134.578125 49.425781 C 135.226562 49.425781 135.238281 48.503906 135.3125 47.933594 C 135.425781 46.792969 135.445312 44.714844 136.988281 44.714844 C 137.589844 44.714844 138.105469 45.214844 138.105469 47.332031 C 138.105469 47.855469 138.050781 48.371094 138.050781 48.898438 C 138.050781 49.234375 138.335938 49.484375 138.632812 49.484375 C 138.988281 49.484375 139.238281 49.214844 139.238281 48.878906 C 139.261719 48.390625 139.292969 47.894531 139.292969 47.398438 C 139.292969 45.703125 139.027344 43.675781 137.066406 43.519531 Z M 127.476562 45.53125 C 127.476562 44.957031 127.453125 44.402344 127.453125 43.828125 C 127.453125 43.53125 127.222656 43.253906 126.886719 43.253906 C 126.667969 43.253906 126.371094 43.417969 126.332031 43.675781 C 126.246094 44.21875 126.1875 44.734375 126.1875 45.28125 C 126.1875 45.625 126.222656 46.035156 126.222656 46.449219 C 126.222656 47.332031 126.023438 48.171875 124.722656 48.171875 C 123.664062 48.171875 122.78125 47.722656 122.78125 46.066406 C 122.78125 45.347656 122.914062 44.667969 122.992188 43.980469 C 123.003906 43.929688 123.011719 43.894531 123.011719 43.828125 C 123.011719 43.53125 122.761719 43.253906 122.449219 43.253906 C 122.226562 43.253906 121.929688 43.417969 121.890625 43.675781 C 121.777344 44.476562 121.632812 45.253906 121.632812 46.058594 C 121.632812 47.628906 122.273438 49.308594 124.753906 49.308594 C 125.355469 49.308594 126.035156 49.175781 126.453125 48.757812 C 126.453125 49.089844 126.675781 49.375 127.03125 49.375 C 127.34375 49.375 127.605469 49.121094 127.605469 48.804688 C 127.488281 48 127.476562 47.222656 127.476562 46.421875 Z M 117.914062 48.269531 C 117.074219 48.269531 115.636719 47.933594 115.636719 46.390625 C 115.636719 45.503906 115.855469 44.546875 117.773438 44.546875 C 118.105469 44.546875 118.421875 44.613281 118.753906 44.613281 C 119.074219 44.613281 119.3125 44.324219 119.3125 44.058594 C 119.3125 43.417969 118.367188 43.453125 117.75 43.453125 C 116.230469 43.453125 114.488281 43.972656 114.488281 46.382812 C 114.488281 48.027344 115.878906 49.359375 117.90625 49.359375 C 118.554688 49.359375 119.65625 49.292969 119.65625 48.640625 C 119.65625 48.335938 119.378906 48.105469 119.082031 48.105469 C 118.671875 48.105469 118.324219 48.269531 117.914062 48.269531 Z M 111.609375 46.8125 C 111.507812 47.550781 111.019531 48.183594 110.09375 48.183594 C 109.058594 48.183594 107.984375 47.710938 107.984375 46.125 C 107.984375 45.394531 108.3125 44.457031 109.601562 44.457031 C 110.175781 44.457031 111.621094 44.746094 111.621094 46.535156 C 111.621094 46.621094 111.621094 46.726562 111.609375 46.8125 Z M 112.550781 45.445312 C 112.199219 44.269531 111.242188 43.355469 109.871094 43.355469 C 108.398438 43.355469 107.355469 43.921875 107.019531 45.160156 C 106.933594 45.472656 106.898438 45.816406 106.898438 46.132812 C 106.898438 47.828125 107.738281 49.042969 109.652344 49.351562 C 109.796875 49.371094 109.929688 49.375 110.0625 49.375 C 111.308594 49.375 112.710938 48.554688 112.710938 46.5625 C 112.710938 46.179688 112.664062 45.800781 112.550781 45.445312 Z M 104.058594 45.734375 C 103.828125 47.25 102.242188 48.144531 100.667969 48.324219 C 100.625 47.839844 100.632812 47.339844 100.632812 46.851562 C 100.632812 45.882812 100.574219 44.933594 100.574219 43.980469 C 100.574219 43.808594 100.566406 42.628906 100.613281 42.628906 C 101.960938 42.828125 103.703125 43.347656 104.058594 45.128906 C 104.074219 45.328125 104.074219 45.53125 104.058594 45.734375 Z M 105.144531 44.765625 C 104.46875 41.875 101.054688 41.425781 99.511719 41.425781 C 99.140625 41.425781 98.816406 41.585938 98.816406 42 C 98.816406 42.34375 99.101562 42.574219 99.4375 42.574219 C 99.4375 42.96875 99.425781 43.347656 99.425781 43.742188 C 99.425781 44.910156 99.484375 46.066406 99.484375 47.234375 C 99.484375 47.589844 99.492188 47.941406 99.523438 48.296875 C 99.511719 48.289062 99.484375 48.289062 99.457031 48.289062 C 99.160156 48.289062 98.917969 48.59375 98.917969 48.863281 C 98.917969 49.425781 99.523438 49.484375 100.238281 49.484375 C 102.441406 49.484375 105.109375 48.171875 105.222656 45.492188 C 105.222656 45.261719 105.195312 45.023438 105.144531 44.765625 Z M 94.375 43.941406 C 94.289062 43.894531 94.191406 43.863281 94.089844 43.863281 C 93.945312 43.863281 93.667969 43.953125 93.589844 44.140625 C 93.40625 44.554688 93.234375 44.964844 93.054688 45.394531 C 92.871094 45.816406 92.746094 46.179688 92.660156 46.476562 C 92.578125 46.773438 92.480469 47.082031 92.359375 47.386719 C 92.183594 47.0625 91.992188 46.515625 91.742188 46.058594 C 91.492188 45.589844 91.179688 45.195312 90.75 45.195312 C 90.507812 45.195312 90.234375 45.597656 90.058594 45.980469 C 89.847656 46.441406 89.664062 46.90625 89.515625 47.234375 C 89.140625 46.515625 88.703125 45.75 88.40625 45.261719 C 88.261719 45.015625 88.117188 44.699219 87.972656 44.316406 C 87.898438 44.09375 87.5625 43.863281 87.257812 43.863281 C 86.941406 43.863281 86.683594 44.105469 86.683594 44.449219 C 86.683594 44.515625 86.691406 44.566406 86.699219 44.59375 C 86.855469 45.023438 86.992188 45.339844 87.09375 45.539062 L 87.523438 46.296875 C 87.703125 46.59375 87.925781 46.972656 88.195312 47.433594 C 88.472656 47.886719 88.710938 48.296875 88.910156 48.648438 C 89.230469 49.214844 89.457031 49.328125 89.570312 49.328125 C 90.03125 49.328125 90.191406 48.8125 90.324219 48.269531 C 90.453125 47.789062 90.710938 47.050781 90.84375 46.9375 C 91.015625 47.042969 91.332031 47.683594 91.542969 48.183594 C 91.800781 48.792969 92.050781 49.417969 92.441406 49.417969 C 92.605469 49.417969 92.824219 49.328125 92.929688 49.128906 C 93.152344 48.640625 93.292969 48.25 93.363281 47.953125 C 93.429688 47.65625 93.496094 47.386719 93.5625 47.167969 C 93.628906 46.9375 93.773438 46.574219 93.972656 46.078125 C 94.183594 45.570312 94.402344 45.078125 94.640625 44.59375 C 94.652344 44.523438 94.664062 44.476562 94.664062 44.4375 C 94.664062 44.238281 94.554688 44.046875 94.375 43.941406 Z M 81.808594 44.699219 C 82.105469 44.535156 82.3125 44.449219 82.6875 44.449219 C 83.195312 44.449219 83.574219 44.554688 83.574219 45.273438 C 83.269531 46 82.074219 45.789062 81.46875 45.941406 C 81.5 45.503906 81.46875 45.003906 81.808594 44.699219 Z M 84.640625 47.808594 C 84.476562 47.808594 83.929688 48.25 83.175781 48.25 C 82.21875 48.25 81.738281 47.863281 81.546875 47.035156 C 81.960938 47.035156 82.378906 46.964844 82.789062 46.902344 C 83.75 46.742188 84.5625 46.375 84.714844 45.300781 C 84.714844 44.335938 84.300781 43.332031 82.65625 43.332031 C 81.644531 43.332031 80.582031 43.882812 80.429688 45.023438 C 80.378906 45.359375 80.332031 45.671875 80.332031 46.011719 C 80.332031 47.445312 80.59375 49.359375 83.164062 49.359375 C 83.738281 49.359375 85.210938 49.074219 85.210938 48.363281 C 85.210938 48.066406 84.972656 47.808594 84.640625 47.808594 Z M 77.015625 49.109375 C 77.121094 49.292969 77.320312 49.398438 77.523438 49.398438 C 77.933594 49.398438 78.296875 49.226562 78.296875 48.804688 C 78.296875 46.46875 78.296875 44.179688 78.421875 41.84375 C 78.421875 41.527344 78.144531 41.273438 77.828125 41.273438 C 77.484375 41.273438 77.242188 41.527344 77.242188 41.84375 C 77.128906 43.585938 77.109375 45.28125 77.109375 47.015625 C 76.554688 46.164062 75.984375 45.222656 75.675781 44.765625 C 74.902344 43.585938 74.289062 42.746094 73.675781 41.757812 C 73.550781 41.519531 73.371094 41.394531 73.152344 41.394531 L 72.96875 41.394531 C 72.355469 41.394531 72.335938 41.980469 72.308594 42.476562 C 72.203125 44.570312 72.402344 46.691406 72.300781 48.785156 C 72.28125 49.101562 72.527344 49.359375 72.863281 49.359375 C 73.199219 49.359375 73.453125 49.101562 73.472656 48.785156 C 73.542969 47.484375 73.515625 46.230469 73.472656 44.929688 L 73.515625 43.484375 C 73.867188 44.085938 74.230469 44.6875 74.640625 45.261719 C 75.496094 46.449219 76.460938 48.007812 76.949219 49.007812 C 76.96875 49.042969 76.988281 49.082031 77.015625 49.109375 " fill-opacity="1" fill-rule="evenodd"/><path fill="#eec3bb" d="M 51.480469 39.664062 L 62.097656 39.511719 L 61.832031 51.800781 L 51.328125 51.800781 L 51.480469 39.664062 " fill-opacity="1" fill-rule="evenodd"/><path stroke-linecap="round" transform="matrix(0.0853924, 0, 0, -0.0854206, 40.588347, 285.665181)" fill="none" stroke-linejoin="round" d="M 127.553808 2879.880488 L 251.887962 2881.663943 L 248.777321 2737.798616 L 125.769764 2737.798616 Z M 127.553808 2879.880488 " stroke="#737049" stroke-width="10.001" stroke-opacity="1" stroke-miterlimit="22.926001"/><path fill="#e17e3f" d="M 62.097656 39.511719 L 64.164062 41.742188 L 63.972656 54.050781 L 53.46875 54.050781 L 51.328125 51.800781 L 61.832031 51.800781 L 62.097656 39.511719 " fill-opacity="1" fill-rule="evenodd"/><path stroke-linecap="round" transform="matrix(0.0853924, 0, 0, -0.0854206, 40.588347, 285.665181)" fill="none" stroke-linejoin="round" d="M 251.887962 2881.663943 L 276.086919 2855.55234 L 273.845428 2711.458365 L 150.837871 2711.458365 L 125.769764 2737.798616 L 248.777321 2737.798616 Z M 251.887962 2881.663943 " stroke="#737049" stroke-width="10.001" stroke-opacity="1" stroke-miterlimit="22.926001"/><path stroke-linecap="round" transform="matrix(0.0853924, 0, 0, -0.0854206, 40.588347, 285.665181)" fill="none" stroke-linejoin="round" d="M 143.610205 2890.489756 C 143.381482 2883.676045 143.289992 2877.182442 143.289992 2868.996843 " stroke="#737049" stroke-width="10.001" stroke-opacity="1" stroke-miterlimit="22.926001"/><path stroke-linecap="round" transform="matrix(0.0853924, 0, 0, -0.0854206, 40.588347, 285.665181)" fill="none" stroke-linejoin="round" d="M 167.031503 2889.712353 C 166.802779 2882.898642 166.71129 2876.405039 166.71129 2868.26517 " stroke="#737049" stroke-width="10.001" stroke-opacity="1" stroke-miterlimit="22.926001"/><path stroke-linecap="round" transform="matrix(0.0853924, 0, 0, -0.0854206, 40.588347, 285.665181)" fill="none" stroke-linejoin="round" d="M 191.001737 2891.312889 C 190.773013 2884.544908 190.681524 2878.051304 190.681524 2869.865706 " stroke="#737049" stroke-width="10.001" stroke-opacity="1" stroke-miterlimit="22.926001"/><path stroke-linecap="round" transform="matrix(0.0853924, 0, 0, -0.0854206, 40.588347, 285.665181)" fill="none" stroke-linejoin="round" d="M 214.011332 2891.632996 C 213.782608 2884.865015 213.691119 2878.371412 213.691119 2870.185813 " stroke="#737049" stroke-width="10.001" stroke-opacity="1" stroke-miterlimit="22.926001"/><path stroke-linecap="round" transform="matrix(0.0853924, 0, 0, -0.0854206, 40.588347, 285.665181)" fill="none" stroke-linejoin="round" d="M 235.511351 2889.437975 C 235.282628 2882.624264 235.191138 2876.130661 235.191138 2867.945062 " stroke="#737049" stroke-width="10.001" stroke-opacity="1" stroke-miterlimit="22.926001"/></svg>