<svg xmlns="http://www.w3.org/2000/svg" xmlns:xlink="http://www.w3.org/1999/xlink" width="570" zoomAndPan="magnify" viewBox="0 0 427.5 314.999992" height="420" preserveAspectRatio="xMidYMid meet" version="1.0"><defs><clipPath id="4ac49d1e97"><path d="M 63.359375 6.980469 L 363.757812 6.980469 L 363.757812 308.128906 L 63.359375 308.128906 Z M 63.359375 6.980469 " clip-rule="nonzero"/></clipPath><clipPath id="2cc9dee705"><path d="M 63.359375 80 L 291 80 L 291 308.128906 L 63.359375 308.128906 Z M 63.359375 80 " clip-rule="nonzero"/></clipPath><clipPath id="0f83c9a2a4"><path d="M 63.359375 118 L 252 118 L 252 308.128906 L 63.359375 308.128906 Z M 63.359375 118 " clip-rule="nonzero"/></clipPath><clipPath id="6533539f23"><path d="M 63.359375 157 L 214 157 L 214 308.128906 L 63.359375 308.128906 Z M 63.359375 157 " clip-rule="nonzero"/></clipPath><clipPath id="d6b9c49d50"><path d="M 63.359375 41 L 330 41 L 330 308.128906 L 63.359375 308.128906 Z M 63.359375 41 " clip-rule="nonzero"/></clipPath></defs><g clip-path="url(#4ac49d1e97)"><path fill="#f19d42" d="M 63.359375 6.992188 L 63.359375 308.117188 L 363.757812 308.117188 C 363.757812 308.035156 363.757812 307.875 363.757812 307.792969 C 363.757812 141.769531 229.304688 7.234375 63.359375 6.992188 Z M 63.359375 6.992188 " fill-opacity="1" fill-rule="nonzero"/></g><g clip-path="url(#2cc9dee705)"><path fill="#ef897e" d="M 63.359375 80.476562 L 63.359375 308.117188 L 290.269531 308.117188 C 290.269531 308.035156 290.269531 307.875 290.269531 307.792969 C 290.269531 182.386719 188.683594 80.71875 63.359375 80.476562 Z M 63.359375 80.476562 " fill-opacity="1" fill-rule="nonzero"/></g><g clip-path="url(#0f83c9a2a4)"><path fill="#1a4b93" d="M 63.359375 118.835938 L 63.359375 308.117188 L 251.914062 308.117188 C 251.914062 308.035156 251.914062 307.875 251.914062 307.792969 C 251.914062 203.542969 167.527344 119.078125 63.359375 118.835938 Z M 63.359375 118.835938 " fill-opacity="1" fill-rule="nonzero"/></g><g clip-path="url(#6533539f23)"><path fill="#4aa6b8" d="M 63.359375 157.59375 L 63.359375 308.117188 L 213.152344 308.117188 C 213.152344 308.035156 213.152344 307.875 213.152344 307.792969 C 213.152344 224.941406 146.128906 157.835938 63.359375 157.59375 Z M 63.359375 157.59375 " fill-opacity="1" fill-rule="nonzero"/></g><g clip-path="url(#d6b9c49d50)"><path fill="#fbe8d7" d="M 168.820312 307.792969 C 168.820312 307.875 168.820312 308.035156 168.820312 308.117188 L 63.359375 308.117188 L 63.359375 201.929688 C 121.660156 202.171875 168.820312 249.410156 168.820312 307.792969 Z M 63.359375 41.3125 L 63.359375 80.476562 C 188.683594 80.71875 290.269531 182.386719 290.269531 307.792969 C 290.269531 307.875 290.269531 308.035156 290.269531 308.117188 L 329.4375 308.117188 C 329.4375 308.035156 329.4375 307.875 329.4375 307.792969 C 329.4375 160.746094 210.328125 41.554688 63.359375 41.3125 Z M 63.359375 41.3125 " fill-opacity="1" fill-rule="nonzero"/></g></svg>