<svg version="1.2" xmlns="http://www.w3.org/2000/svg" viewBox="4425 0 855 630" width="855" height="630">
	<title>CHROMA AI-pdf</title>
	<defs>
		<clipPath clipPathUnits="userSpaceOnUse" id="cp1">
			<path d="m4425 0h855v630h-855z"/>
		</clipPath>
		<clipPath clipPathUnits="userSpaceOnUse" id="cp2">
			<path d="m4654.13 47.17h406.5v502.5h-406.5z"/>
		</clipPath>
		<clipPath clipPathUnits="userSpaceOnUse" id="cp3">
			<path d="m4668.21 47.17h381v369h-381z"/>
		</clipPath>
		<clipPath clipPathUnits="userSpaceOnUse" id="cp4">
			<path d="m4668.21 82.26h375v339h-375z"/>
		</clipPath>
		<clipPath clipPathUnits="userSpaceOnUse" id="cp5">
			<path d="m4670.18 485.08h375v48h-375z"/>
		</clipPath>
	</defs>
	<style>
		tspan { white-space:pre } 
		.s0 { fill: #ffffff } 
		.s1 { fill: #ffde59 } 
		.s2 { fill: #000000 } 
		.s3 { fill: none;stroke: #806600;stroke-width: 4.6 } 
		.t4 { font-size: 61px;fill: #000000;font-weight: 500;font-family: "Bernoru" } 
	</style>
	<g id="Page 6" clip-path="url(#cp1)">
		<path id="Path 367" class="s0" d="m4425 629.9h855v-630h-855zm0 0h855v-630h-855z"/>
		<g id="Mask" clip-path="url(#cp2)">
			<path id="Path 369" class="s1" d="m4654.1 678.3v-427.9c0-111.7 91.5-203.1 203.2-203.1 111.8 0 203.2 91.4 203.2 203.1v427.9z"/>
		</g>
		<g id="Mask" clip-path="url(#cp3)">
			<path id="Path 372" fill-rule="evenodd" class="s2" d="m4966.6 47.2c3.1 0.6 12.4 5.5 16 8.4 3 2.4 6.1 6.4 10.1 13.1 2.2 3.5 2.7 4.9 3.2 8.5 0.7 5-0.3 9.2-4.1 16.8-2.2 4.4-3 7.8-3 12.3 0 4.2 1.6 11.5 3.2 14.6 0.4 0.8 0.7 1 2 1 0.8 0 2-0.3 2.7-0.6 0.9-0.4 2.3-0.6 4.1-0.6q0.1 0 0.3 0c4.1 0 5.9 1 8.5 4.9 1 1.5 1.3 2.3 1.7 4.6l0.3 2.7h1.6c0.8 0 2.6 0.2 4 0.5l2.4 0.4 2.9 3c5.8 6.1 8.3 10.7 12.6 24.1 2 6.4 3.4 12.1 3.7 15.6 0.2 2.1 0.6 3.7 1.7 6.6 2.4 6.1 3.4 10.3 4.8 19.3 0.4 2.4 1 6 1.4 8.1 0.4 2 0.8 5.3 1 7.3 0.2 2.1 0.5 5.2 0.7 7.1 0.1 1.8 0.4 5.4 0.5 7.9 0.3 6-0.4 26.1-0.9 26.6-0.2 0.3-1.3 0.5-2.4 0.6l-2.1 0.1-0.5 2.2c-1.3 5.2-3.6 7.9-8.1 9.3-1.4 0.4-2.9 0.9-3.4 1.1-0.6 0.2-5.4 1.8-10.8 3.7-5.3 1.8-10.4 3.6-11.3 3.9-3.1 1.1-5.7 1.9-7.2 2.3-1.3 0.4-1.4 0.5-1.2 1.3 0.1 0.6 0.4 2.4 0.6 4.1 1.1 7.5 2.5 13 4.8 20 1 3.1 1.6 5.7 1.9 8.4 0.8 5.9 1.4 15.2 1.1 16.5-0.1 0.7-0.4 3-0.7 5.2-0.6 4.7-1.1 8.5-1.3 9.2-0.1 0.3-0.6 2.8-1 5.6-1.4 8-2 9.8-4.5 12.9-0.8 1.1-1 1.8-1.6 5.2-0.5 3.5-0.5 4.5-0.2 7.8 0.5 4 0.2 5.6-1 7.6q-0.6 1.1-0.6 2.9c0 1.1-0.2 2.3-0.3 2.8-0.6 1.4-1.1 13.4-1 21.9 0.1 10.4 0.1 10.2-0.3 12.8-0.2 1.3-0.4 6.9-0.5 12.6-0.1 11.5 0 11.8 2.3 14.1 1.4 1.6 1.8 3 2 7.8 0.1 2.1 0.2 4.1 0.3 4.5 0.1 0.3 1 1.9 2 3.5 1.9 2.9 2.1 3.2 3.2 6.8 0.3 1.2 1.3 3.1 2 4.2 2.1 3 4.5 7.4 7.7 14.1 3.4 7.3 4.2 9.3 4.8 12.6 1.1 5 3.3 15.7 5.5 26.1 0.6 2.4 1.3 5.7 1.7 7.2 1.5 6.2 1.7 7.8 2.3 14.3 0.5 6.9 1 8.9 2.6 11.3 0.4 0.6 1.2 2.2 1.7 3.4 1.8 4.4 1.4 8.9-1.1 14-1 2-0.9 2.6 0.8 6.4 0.8 1.5 1.9 4.2 2.6 5.9 0.7 1.8 1.6 4 2 5 0.4 1 1 2.9 1.3 4.2 2.4 10.6 2.4 11.3 1.6 13.7-1.2 3.1-2.6 4.9-5 6.1-1.2 0.7-2.8 1.6-3.7 2.1-1.6 1-4.4 2.1-5.4 2.1-0.4 0-1.6 0.8-2.7 1.9-4.2 3.8-8.4 6.6-11.1 7.3-0.9 0.2-2.6 0.7-3.6 1-4.1 1.1-14 2.5-21.2 2.8-1.7 0.1-2.9 0.2-4 0.2-2.5 0-4.3-0.3-10-1.2-4.4-0.7-8.2-1.2-8.5-1.2q0 0 0 0 0 0-0.1 0c-0.3 0-0.8-0.1-1.5-0.2-0.8-0.2-1.6-0.7-2.5-1.8-1.2-1.3-1.4-1.8-1.4-3.1 0-1.3 0.4-3.1 1.1-5.7 0.1-0.4-0.9-0.5-5.9-0.6-5.8-0.1-9-0.4-11.6-1.1-0.6-0.2-1.6-0.3-2.9-0.3-4.4 0-11.9 1.1-18.1 2.7-7.5 2-13.4 2.9-20.1 2.9-2.7 0-5.7-0.1-8.9-0.4-5.8-0.5-7.8-1-10.3-2.3-4.4-2.2-6.5-6.8-5-10.9 1.3-3.9 3.6-5.4 9.9-6.6 9.9-1.9 17.7-4.3 22.3-6.8 3.9-2.1 7.7-4.6 10.8-7 3.4-2.8 10.6-10.1 10.6-10.8 0-0.3-0.2-0.9-0.5-1.3-0.8-1.2-1.2-4.2-0.8-6.8 0.2-1.9 0.6-3 1.8-5 1.7-3 2-4.3 2.7-13.6 0.3-3.7 0.9-8.3 1.2-10.3 0.9-4.8 1.1-13.7 0.4-18.8-0.2-2.1-0.6-6.2-0.8-9.2-0.2-3.1-0.5-8.4-0.8-11.9-0.3-3.5-0.5-9.8-0.5-13.9l-0.1-7.6-0.9-1.8c-0.9-1.7-1-2.2-1-5.2 0-3.1-0.1-3.5-0.9-4.6-1.1-1.7-2.1-4.7-2.3-7.1-0.1-1.1-0.5-2.9-0.8-4.1-0.4-1.1-0.7-2.9-0.9-4.1-0.3-3.8-2.1-13.9-2.6-15.2-0.1-0.3-0.4-1.5-0.5-2.8-0.2-1.3-0.6-3.8-1-5.7-0.9-4.6-1.6-8.7-1.9-10.9-0.1-1-0.8-4.7-1.5-8.3-0.7-3.5-1.5-7.4-1.7-8.5-0.7-4.5-1.4-8.6-1.8-12.3-0.3-2.1-0.8-5.8-1.2-8.2-0.3-2.4-0.8-7.2-1-10.7-0.1-3.5-0.4-7.4-0.5-8.7-0.1-1.4-0.1-2.4 0.2-2.7 0.2-0.3 0.4-3.3 0.5-8.9 0.1-4.7 0.4-9.5 0.6-10.7 0.2-1.5 0.2-2.7-0.1-4.6-0.4-2.3-0.4-3.1 0.1-5.7 0.5-2.4 0.5-3.4 0.2-4.6-0.9-4.2-1-6.1-0.3-8.3 1.7-5.8 2.4-9.1 2.7-11.8 0.1-1.7 0.4-4.5 0.6-6.2 0.6-5.7 1.1-11 1.1-13.2v-2.1l-1.9-0.6c-2.8-0.9-4.9-2.3-6.6-4.5-0.8-1.1-2-2.2-2.7-2.5-1.4-0.7-2.9-2.4-2.9-3.2 0-0.4-0.6-1.2-1.4-2-0.8-0.7-1.9-1.9-2.4-2.6-0.6-0.7-1.9-2.1-3-3.1-1.5-1.4-1.9-2-2.2-3.4-0.5-2.4-0.2-3.3 1.5-4.1q1.5-0.6 1.5-1.3c0-1.4 2.7-2.9 6.5-3.8 0.6-0.1 2.6-1 4.5-1.9 2.3-1.1 4.6-2 6.3-2.3l2.8-0.6v-6.5c0-3.5-0.1-6.5-0.2-6.6q0 0 0 0c-0.1 0-1.5 0.9-3.1 1.9-1.6 1.1-3.6 2.4-4.4 2.8-1.9 1-11 6.4-16 9.5-4.9 3-5.6 3.4-7.7 4-1.1 0.3-2.8 0.5-4.8 0.5-2.3 0-5-0.2-7.6-0.7-2.2-0.4-4.8-0.8-5.9-1-1.1-0.2-2.1-0.4-2.2-0.5-0.5-0.3-5.5-1.1-6.6-1.1-0.6 0-1.5-0.3-2-0.5-0.5-0.3-1.8-0.6-2.8-0.7-2.4-0.3-4.7-1-9-2.6-2-0.7-5.2-1.8-7.2-2.4-2-0.7-5-1.8-6.5-2.4-3-1.3-5.6-2.1-8.2-2.5-0.9-0.2-2.1-0.5-2.5-0.6-0.5-0.2-2.2-0.7-3.8-1-1.6-0.4-3.4-1-3.9-1.2-0.5-0.3-2-0.7-3.4-1.1-2.4-0.6-6.9-2.2-9.1-3.3-2.8-1.5-8.7-5.7-10.9-7.8-1.4-1.4-2.7-2.4-2.8-2.4-0.2 0-0.2 0.1-0.1 0.2 0 0.2 0.3 1.6 0.6 3.1 1.2 6.4 2.7 14.4 3.1 16.9 0.3 1.5 0.8 3.9 1 5.4 0.3 1.5 0.7 3.9 1 5.4 0.3 1.4 0.7 3.9 1 5.4 0.3 1.5 0.7 4 1 5.5 0.3 1.6 0.7 4 1 5.5 0.4 2.5 0.7 3.7 2 10.8 0.3 1.4 0.9 4.6 1.3 7 0.4 2.5 0.9 4.5 0.9 4.6 0.2 0.2 3.5 0.5 13 1.4 3.1 0.3 6.5 0.6 7.6 0.7l2 0.3 0.2 5c0.1 2.7 0.1 5.1 0 5.3 0 0.1-0.4 0.2-0.8 0.2-0.4 0-2.5 0.5-4.6 1-2.1 0.5-5.4 1.4-7.4 1.9-1.9 0.5-3.8 1-4.2 1.1-0.8 0.4-1.4 0.5-2.3 0.5-0.5 0-1.1 0-1.8-0.1-1-0.2-5.3-0.6-9.6-0.9-4.2-0.3-7.9-0.6-8.1-0.6q0 0-0.1 0c-0.5 0-0.4 1.4 0.4 5.4 0.9 4.9 0.9 4.9 2 11.2 0.6 3 1.2 6.7 1.5 8.2 0.2 1.4 0.9 5.2 1.5 8.3 0.6 3.2 1.3 7 1.5 8.5 1.2 6.9 1.5 8.5 2 11.1 0.3 1.6 0.8 4 1 5.4 0.3 1.4 0.7 3.7 0.8 5.2 0.2 1.5 0.5 2.9 0.6 3.2 0 0.3 0.3 1.8 0.6 3.4 0.7 4.1 2.4 14.2 4 23.2 0.7 3.7 1.3 7 2.5 14.4 0.6 3.3 1.3 7.3 1.6 8.8 0.9 5.4 1.7 10.1 3.4 20 0.6 3.4 1.3 7.3 1.6 8.8 0.3 1.6 0.7 4 1 5.5 0.8 5 1.1 6.1 1.4 6.3 0.3 0.2 0.5 1.2 1.6 7.4 0.2 1.6 1.3 8.3 2.5 14.9 1.1 6.7 2.3 13.4 2.5 15.1 1.3 7.5 1.5 9.1 2.5 14.7 1.2 6.9 5.8 34.4 6.5 38.7 1.6 9.8 2.9 17.1 3.2 17.8 0.2 0.5 0.6 2.4 0.8 4.4 0.3 1.9 0.8 4.7 1 6.3 0.3 1.6 0.7 4.4 1 6.4 0.3 1.9 0.8 4.8 1.1 6.5 0.2 1.7 0.5 3.8 0.6 4.7 0.2 0.9 0.5 2 0.9 2.4 0.3 0.3 0.5 0.8 0.4 1-0.2 0.2-1.7 1.3-3.4 2.4-2 1.4-2.9 1.8-3.4 1.8q-0.2 0-0.3 0c-0.4-0.2-1.8-0.4-3.2-0.4-2.3 0-2.6-0.1-2.8-0.8-0.3-0.7-1.4-6.9-3.9-22.8-0.6-4.1-1.3-8.2-1.5-9.2-0.2-1-0.7-3.8-1-6.2-0.4-2.4-0.9-5.6-1.2-7.1-0.5-2.8-2.8-16.5-4.3-25.9-0.5-3.1-0.9-4.7-1.1-4.7 0 0-2.7 0.7-5.9 1.5-8.3 2.1-25.4 6.5-36.2 9.2-5.1 1.3-9.8 2.6-10.4 2.9-0.5 0.2-6.4 1.8-13 3.5-6.6 1.7-12.6 3.2-13.4 3.4l-1.3 0.3 0.3 26.2c0.1 15.4 0.3 27.1 0.5 28.4 0.2 1.3 0.4 9.8 0.4 20.5l0.1 18.2-3.5 1.3c-1.9 0.8-3.9 1.6-4.4 1.9-0.4 0.1-1.1 0.2-1.9 0.2-1.6 0-3.5-0.3-4-0.6-0.4-0.4-0.6-5.5-0.1-6.2 0.1-0.2 0-5.9-0.2-12.6-0.6-20.3-1.1-33.8-1.5-43.3-0.2-5-0.5-13.8-0.6-19.5-0.2-5.7-0.6-16.8-0.9-24.8-0.2-7.9-0.7-21.2-1-29.4-0.2-8.3-0.6-19.1-0.8-24-0.2-4.9-0.3-10.3-0.3-12.2 0-1.7-0.2-3.2-0.3-3.2-0.2 0-0.5 1.9-0.7 4.2-0.2 2.4-0.6 6.6-0.9 9.4-0.3 2.7-0.7 7.3-1 10.2-0.7 7.8-1.4 14.3-2 20.3-0.3 2.9-0.6 6.5-0.7 7.8-0.1 1.4-0.3 3.6-0.5 4.8-0.1 1.3-0.4 3.8-0.6 5.5-0.2 2.1-0.5 3.3-0.8 3.6-0.5 0.4-0.8 3-1.6 12.6-0.2 2.5-0.6 7.1-0.8 10.2-0.3 3.1-0.7 8.5-1 11.9-0.3 3.4-0.7 8.9-1 12.1-0.3 3.2-0.7 8.8-1 12.4-0.3 3.5-0.5 6.8-0.6 7.1-0.1 0.6-0.9 1-6.7 2.7l-2.9 0.9-1.7-0.9c-0.9-0.4-1.8-1.1-1.9-1.4-0.4-0.6-0.3-2.1 0.7-12.8 0.3-3 0.7-7.3 0.9-9.5 0.2-2.3 0.4-4.3 0.5-4.6 0.1-0.2 0.4-2.9 0.7-5.8 0.2-3 0.6-8 0.9-11.1 0.3-3.1 0.8-8.4 1-11.7 0.3-3.3 0.6-6.6 0.7-7.2 0.1-0.6 0.3-2.6 0.4-4.2 0.1-1.7 0.2-3.3 0.3-3.6 0.1-0.2 0.4-2.6 0.7-5.1 0.5-4.9 1-10 2-18.1 0.6-5.8 1.3-12.1 2-17.8 1-9.5 1.4-13.2 1.8-16.2 0.3-1.7 0.4-3.5 0.3-4-0.3-1-0.2-1.1 1.9-18.1 0.3-2.3 0.7-6 1-8.2 0.3-2.2 0.7-5.9 1-8.2 0.3-2.4 0.7-6.1 1-8.4 0.3-2.3 0.7-5.9 1-8.1 0.6-4.8 1.4-11.3 1.8-15 0.2-1.6 0.4-6.5 0.6-10.9 0.4-13.2 0.4-12.1-0.9-65.2-0.2-6.9-0.4-17.4-0.5-23.3-0.1-5.9-0.3-10.8-0.5-10.9-0.2-0.3-3.2-0.8-9.5-1.6-3.6-0.5-6.2-1.1-6.4-1.4-0.1-0.1-0.2-0.2-0.3-0.2q-0.1 0-0.2 0-0.1 0.1-0.2 0.1c-0.5 0-0.7-2.4-0.9-9.9-0.2-5.7-0.1-8.6 0.1-9.1 0.3-0.6 0.7-0.7 4.4-0.7 2.2 0 4-0.1 4-0.2 0-0.2-0.3-1.5-0.6-3.1-0.2-1.6-0.7-4.1-0.9-5.6-0.3-1.5-0.7-4.1-1-5.6-0.3-1.6-0.7-4.1-1-5.7-0.3-1.6-0.7-4.1-1-5.6-0.3-1.6-0.7-4.1-1-5.6-0.3-1.6-0.7-4.2-1-5.7-0.3-1.6-0.8-4.3-1.1-5.9-0.2-1.7-0.7-4.2-1-5.7-0.6-3.4-1.3-7.5-2-11.4-0.2-1.7-0.7-4.2-1-5.7-0.2-1.5-0.7-3.9-0.9-5.5-0.3-1.6-0.8-4.2-1.1-5.9-0.3-1.7-0.7-4.2-1-5.8-0.6-3.4-1.5-8.6-2.8-16-0.4-2.2-0.9-4.7-1-5.7-0.2-0.9-0.6-3.4-1-5.6-0.4-2.3-1.1-6.1-1.5-8.6-1.6-8.7-4.2-23.8-5.1-28.5-0.2-1.3-0.7-3.9-0.9-5.5-0.3-1.7-1-5.1-1.4-7.7-1.4-7.4-1.5-8.7-1.4-10.4l0.1-1.6 2.4-0.8c1.1-0.4 1.7-0.7 2.4-0.7 1 0 2.2 0.5 5.4 1.6 1.3 0.5 4.5 1.6 6.8 2.5 2.4 0.9 5.6 2 7.1 2.5 15.3 5.6 23.7 8.5 25.8 9.1 1.3 0.3 9.8 2.9 19 5.7 9.2 2.7 17.4 5.2 18.2 5.5 0.9 0.2 2.3 0.7 3.3 1 2.4 0.7 4.7 1.4 6.7 2 4.6 1.4 9.2 2.8 9.3 3 0.2 0.1 0.4 1.4 0.6 2.8 0.3 1.4 0.9 5.3 1.5 8.6 0.6 3.3 1.3 7.3 1.5 8.7 0.3 1.5 1 5.4 1.5 8.6 0.6 3.2 1.3 7.1 1.6 8.7 0.2 1.6 0.7 4.1 1 5.7 0.2 1.6 0.7 4 1 5.5 1.1 6.3 1.5 8.3 1.7 8.6q0 0.1 0.1 0.1c0.2 0 0.7-0.4 1.3-1 1.2-1.1 2.6-1.8 4.3-1.8 1.9 0 4.2 0.8 7.1 2.4 2.2 1.2 3.9 2.4 5.5 4 1.3 1.3 2.8 2.5 3.3 2.6 0.5 0.2 2.9 0.5 5.3 0.7 6.1 0.5 7.9 0.9 8.5 1.8 0.6 0.9 0.3 1.8-0.7 2.2-0.1 0.1-0.6 0.1-1.3 0.1-1.2 0-3-0.1-4.9-0.2-2.5-0.2-4.7-0.3-5.4-0.3q-0.3 0-0.3 0c-0.3 0.1 1.1 4.2 2.2 6.6 1.7 3.8 4.3 5.6 8.8 6.4 1.7 0.2 4.4 0.8 6.1 1.3 4.8 1.2 11.2 2.5 14.7 2.8 1.8 0.2 4.7 0.5 6.6 0.7 1.9 0.2 6.3 0.3 11.1 0.3 8.7 0 19-0.3 20.9-0.7 3.1-0.7 6-2.1 8.8-4.1 3.3-2.4 10-8.1 13.6-11.6 1.7-1.7 3.7-3.6 4.5-4.2 1.3-1.1 8.2-10 9.7-12.5 0.9-1.5 2.3-5.5 2.6-7.2 0.1-0.7 0.7-2.8 1.2-4.6l1-3.3 3.6-3.2c1.9-1.8 3.7-3.5 4-3.8 3.4-3.2 11.2-9.3 13.7-10.5 1.6-0.8 2.2-1.6 1.5-2-0.2-0.1-0.6-0.9-1-1.8-0.6-1.1-0.7-2.1-0.7-4.2 0-4.4 1.1-7.3 4-10.5 0.7-0.8 1.4-1.9 1.6-2.8 0.6-2.2 1.3-4.1 2.1-5.1 0.4-0.7 0.6-0.9 0-0.9-0.5 0-1.5 0.1-3.2 0.4q-3.1 0.5-5.5 0.5c-3 0-5.2-0.6-7-1.9-2-1.5-2.2-2.5-2.2-9.4 0-5.8-0.1-6.2-0.7-6.5-1-0.5-1.2-0.9-1.2-2.3 0-0.6-0.1-1.3-0.3-1.5-0.1-0.2-1.2-0.6-2.5-0.8-1.6-0.3-2.4-0.6-2.7-1.1-0.8-1.1-0.6-3.6 0.2-5 1.2-1.8 2.2-3.6 3.2-5.6 0.8-1.8 0.8-2.1 0.6-5.2-0.4-4.7-0.3-5.9 0.5-8.7 0.3-1.4 0.7-4.2 0.8-6.7 0.2-4 0.2-4.2-0.5-4.4-1.8-0.6-2.3-4.4-1-7.8 2.1-5.4 6.2-10.2 12.9-14.9 7-5 13.6-7.4 21.9-7.9 1.1-0.1 2.1-0.1 3-0.1 0.7 0 1.3 0 1.6 0.1zm76.9 211q0.3 0 0.6 0-0.3 0-0.6 0zm-305.9 52c-0.3 0.6-1.7 2.8-2.9 4.8-1.5 2.4-2.3 4.1-2.4 4.9-0.1 1.3-0.6 5.8-1.1 9.2-0.2 1.3-0.5 3.6-0.7 5.2-0.4 3.7-1.1 9.2-1.8 14-0.3 2.2-0.8 5.6-1 7.7-0.3 2.2-0.7 5.6-1 7.8-1.5 11.2-1.6 12.4-1.2 13.4 0.2 0.6 0.3 2.4 0.3 4.1 0 1.7 0.2 6.6 0.4 10.9 0.1 4.4 0.5 12.7 0.6 18.5 0.2 5.8 0.6 16.8 0.9 24.4 0.2 7.7 0.6 18.5 0.8 24.1 0.2 5.7 0.5 13.9 0.7 18.5 0.2 4.5 0.4 11.3 0.5 15 0.1 3.8 0.4 7.1 0.5 7.3 0.3 0.3 0.6 9.7 1.2 36.2 0.2 6 0.4 9.8 0.6 9.8 0.3 0 7.2-1.8 18.6-4.7 2.8-0.8 7.4-1.9 10-2.6l4.9-1.3 0.1-1.3c0.1-0.7-0.1-3.5-0.4-6.3-0.3-2.8-0.8-7.7-1.1-10.9-0.3-3.2-0.7-8.1-1-10.7-0.2-2.7-0.7-7.4-0.9-10.4-0.3-3.1-0.8-8-1.1-11-0.9-9.9-1.5-16.3-2-21.4-0.4-5.1-1.1-11.9-2-21.5-0.2-3-0.7-7.9-1-10.9-1-11.2-2.1-22.4-3-31.9-0.3-2.9-0.7-7.8-1-10.9-0.3-3-0.7-7.8-1-10.7-0.3-2.8-0.7-7.8-1-10.9-0.3-3.1-0.7-8-1-10.7-0.3-2.8-0.7-7.6-1-10.7-0.3-3.2-0.7-8-1-10.8-0.3-2.7-0.7-7.6-1-10.7-0.7-7.5-1.6-15.7-1.6-15.8-0.1 0-1.2-0.2-2.5-0.4-1.4-0.2-2.2-0.3-2.8-0.3-0.9 0-1.1 0.3-1.6 1zm20.1 3.5c0.3 1.4 0.6 4.3 1.4 12.4 0.3 2.7 0.8 6.9 1 9.3 0.3 2.4 0.7 6.6 1 9.3 0.8 7.3 1.5 13.9 1.9 17 0.1 1.6 0.4 4.4 0.6 6.2 0.2 1.9 0.5 3.5 0.7 3.7 0.1 0.2 0.6 3 0.9 6.2 0.2 3.2 0.6 7.3 0.8 9.1 0.2 1.7 0.5 4.9 0.7 7 0.1 2.1 0.5 6.3 0.8 9.4 0.2 3 0.9 9.7 1.3 14.9 0.5 5.2 1.1 11.9 1.4 15.1 0.3 3.1 0.7 8 1 10.9 0.2 2.8 0.7 7.6 0.9 10.7 0.3 3 0.8 8.2 1.1 11.4 0.2 3.2 0.6 7.3 0.8 9 0.2 1.8 0.5 5 0.7 7.2 0.2 2.2 0.5 5.6 0.6 7.6 0.2 1.9 0.6 6.1 0.9 9.3 0.8 9.3 1.5 16.3 1.8 20.2 0.2 1.9 0.5 5.4 0.7 7.8 0.4 4.8 0.6 6.2 0.9 6.2 0.7 0 29.7-6.8 30-7 0.1-0.1-0.3-3.6-1-7.6-1.3-8.3-1.9-11.8-2.6-16.9-0.3-1.9-0.7-4.2-0.9-5-0.1-0.8-0.4-2.3-0.5-3.2-0.1-0.9-0.3-2.4-0.5-3.3-0.1-1-0.6-3.7-1-6.1-0.3-2.4-0.8-5.2-1-6.3-0.2-1.1-0.8-4.9-1.3-8.4-0.6-3.5-1.3-7.7-1.5-9.4-0.3-1.7-0.7-4.4-1-6.2-0.3-1.7-1-5.9-1.5-9.4-0.6-3.4-1.3-8.3-1.7-10.9-0.4-2.5-1-5.2-1.4-6-0.4-0.8-1.2-5-2.2-10.7-0.8-5.2-1.7-10.6-2-12.1-0.2-1.4-0.6-4.1-0.9-5.8-1.3-8-1.6-9.7-2-12.3-0.9-5.1-1.5-8.8-2-11.8-0.3-1.6-0.9-5.2-1.3-8.1-0.5-2.8-1.1-6-1.3-7-0.2-1-1.9-11.5-3.8-23.1-1.9-11.7-3.6-21.6-3.7-22-0.1-0.8 0.3-0.7-8.7-1.7-2.4-0.2-5.2-0.5-6.3-0.7l-2-0.2zm56.2 212q0.2 0 0.4 0 0.2 0 0.3 0-0.1 0-0.3 0-0.2 0-0.4 0zm-49.1 13.4q0.3 0 0.5 0 0.2 0 0.4 0-0.2 0-0.4 0-0.2 0-0.5 0zm209.6-30.3c0 4.2-0.1 9.1-0.3 11.1-1 10.2-1.1 13.6-1.2 20.6 0 7.2-0.3 9.8-1.5 19.9-0.2 1.5-0.5 2.8-0.7 2.9-0.2 0.1-0.3 0.7-0.3 1.4 0 0.7-0.3 2.9-0.6 4.9-1.7 9.9-2.1 12-2.4 15.7-0.3 3.6-0.3 4.1 0.3 5.4 1 2.4 1.1 3.4 0.5 6.1-0.7 3.1-0.5 4.7 1.4 8.9l1.2 2.8-0.1 4.8c0 4.6 0.4 8.1 1.1 8.1 0.4 0 9.5-5.7 10.8-6.8 0.6-0.5 1.5-1.7 2-2.8 0.7-1.4 2-2.9 4.2-5 5.6-5.3 6.3-6 7.7-8.2 1.1-1.6 1.3-2 2.1-2q0.3 0 0.7 0.1l1.5 0.1 0.6-1.7c0.3-0.9 1-2.5 1.5-3.7 0.5-1 0.8-2.1 0.7-2.5-0.1-0.3-1-1.6-2-2.9-2.9-3.9-3-6-0.2-7.7 1.2-0.7 1.4-1 1.4-1.9 0-1.6-0.8-4.2-2.5-7.7-1.4-3-3.1-9.2-3.7-13.1-0.1-1-0.7-4.2-1.3-7.2-0.7-3.1-1.4-6.2-1.5-7-0.4-1.9-1.2-4.6-2.3-8.3-0.5-1.7-1.2-3.6-1.4-4.4-0.2-0.8-1.4-3.2-2.5-5.2-1.2-2.1-3.9-7.1-5.9-11.2-2.9-5.7-4.2-7.7-5.5-9.2l-1.8-1.8zm-21.7-375.5q0 0 0 0 0 0 0 0zm-171.6 72.3q0 0 0 0 0 0 0 0 0 0 0 0zm25.5 3.6q0.3 0 0.7 0-0.4 0-0.7 0-0.3 0-0.4 0 0.1 0 0.4 0zm11.3 0.7q0 0 0 0 0 0-0.1 0zm-30.5 7.7q0 0 0 0 0 0 0 0zm134 23.2q0 0 0 0 0 0 0 0zm-21.1 26.5zm-192.3 36.1q0 0 0 0 0 0 0 0zm6.5 168.2q0 0 0 0 0 0 0 0zm71.4-157.3q0 0 0.1 0 0 0 0 0zm-17.7 222.4q0 0 0 0 0 0 0 0zm-0.4 0q0 0 0 0 0 0 0 0zm-1 4.6q0 0 0 0 0 0 0 0zm-10.1-231.4q0 0 0 0 0 0 0 0zm242.6 288.1q0 0 0 0 0 0 0 0zm-58 27.2c1 0 1.7 0.1 2.7 0.3-1-0.2-1.7-0.3-2.7-0.3-0.9 0-2 0.1-4 0.3 2-0.2 3.1-0.3 4-0.3zm-38.2 5.7q0 0 0 0-0.1 0-0.1 0zm79.5 9.7q0 0 0 0 0 0 0 0zm-20-591.9q0.5 0 1.1 0-0.6 0-1.1 0c-1.1 0-2.3 0-3.4 0.1 1.1-0.1 2.3-0.1 3.4-0.1z"/>
		</g>
		<g id="Mask" clip-path="url(#cp4)">
			<path id="Path 375" fill-rule="evenodd" class="s2" d="m5039.7 530.8h-368.6c-1.5 0-2.8-1.3-2.8-2.8v-261.6c0-49 19.3-95.2 54.1-130 34.9-34.9 81.1-54.1 130.1-54.1h5.7c49 0 95.2 19.2 130.1 54.1 34.9 34.8 54.1 81 54.1 130v261.6c0 1.5-1.2 2.8-2.7 2.8zm-187.2-446.7c-48.5 0-94.2 19-128.8 53.6-34.5 34.5-53.5 80.2-53.5 128.7v261.6c0 0.5 0.4 0.9 0.9 0.9h368.6c0.5 0 0.8-0.4 0.8-0.9v-261.6c0-48.5-19-94.2-53.5-128.7-34.6-34.6-80.3-53.6-128.8-53.6z"/>
			<path id="Path 376" fill-rule="evenodd" class="s2" d="m5030.8 520.5h-350.9c-1.2 0-2.3-1-2.3-2.2v-249.9c0-47.3 18.6-91.8 52.2-125.5 33.7-33.7 78.3-52.2 125.6-52.2 47.2 0 91.8 18.5 125.5 52.2 33.6 33.7 52.2 78.2 52.2 125.5v249.9c0 1.2-1 2.2-2.3 2.2zm-175.4-428c-46.8 0-90.9 18.4-124.3 51.7-33.3 33.3-51.6 77.4-51.6 124.2v249.9c0 0.2 0.2 0.4 0.4 0.4h350.9c0.3 0 0.4-0.2 0.4-0.4v-249.9c0-46.8-18.3-90.9-51.6-124.2-33.3-33.3-77.5-51.7-124.2-51.7zm3.6 22c0 2-1.6 3.7-3.6 3.7-2 0-3.7-1.7-3.7-3.7 0-2 1.7-3.6 3.7-3.6 2 0 3.6 1.6 3.6 3.6z"/>
		</g>
		<path id="Path 378" fill-rule="evenodd" class="s3" d="m4697 465.3h-14.7l-2.4 6.4h-13.7l16.4-43.7h14.3l16.2 43.7h-13.8zm-3.9-10.5l-3.4-12-3.6 12zm47.5-18.8q3.4 0 6.4 1.6 3 1.5 4.7 4.8l-9.7 9q-2.6-3.6-6.4-3.6-1.9 0-3.1 2.4-1.3 2.4-1.9 7v14.5h-14.2v-35h14.2v5.5q3.1-6 10-6.2zm48.2 25.2l-10.5-4.3q-0.3 4-4.1 4-2.2 0-3.5-1.6-1.2-1.7-1.2-4.7v-4.9h7.1v-10.4h-7.1v-10h-14.2v28q0 7.2 4.2 11.2 4.3 3.9 12.1 3.9 7.9 0 12.4-2.9 4.4-3 4.8-8.3zm44.4 4.1h-14.6l-2.4 6.4h-13.7l16.3-43.7h14.4l16.1 43.7h-13.8zm-3.8-10.5l-3.4-12-3.6 12zm56.8 6.4l-10.5-4.3q-0.3 4-4.1 4-2.2 0-3.5-1.7-1.3-1.6-1.3-4.6v-4.9h7.2v-10.5h-7.2v-9.9h-14.1v27.9q0 7.3 4.2 11.2 4.3 4 12 4 8 0 12.4-3 4.5-2.9 4.9-8.2zm37.6 0l-10.5-4.3q-0.2 4-4.1 4-2.2 0-3.4-1.7-1.3-1.6-1.3-4.6v-4.9h7.2v-10.5h-7.2v-9.9h-14.2v27.9q0 7.3 4.3 11.2 4.2 4 12 4 7.9 0 12.4-3 4.5-2.9 4.8-8.2zm41.4-24.5v35h-14.2v-4.9q-3.2 5.6-8.9 5.6-7.2 0-11.1-4.8-3.8-4.8-3.8-13.4 0-8.8 3.8-13.5 3.9-4.7 11.1-4.7 5.8 0 8.9 5.5v-4.8zm-19.1 24.2q2.4 0 3.6-1.7 1.2-1.8 1.2-5 0-6.8-4.8-6.8-5 0-5 6.8 0 3.2 1.3 5 1.3 1.7 3.7 1.7zm61.7-2.3l-13.5-2.2q-0.9 4.5-5.3 4.5-2.4 0-3.7-1.7-1.3-1.8-1.3-5 0-3.3 1.3-5.1 1.3-1.7 3.7-1.7 4.4 0 5.3 4.5l13.5-2.3q-1.1-6.5-5.9-10.1-4.8-3.5-12.9-3.5-9.1 0-14 4.7-5 4.7-5 13.5 0 8.6 5 13.4 4.9 4.8 14 4.8 8 0 12.8-3.6 4.9-3.6 6-10.2zm4.9 13.1v-43.7h14.1v19.4l9.6-10.7h14.2l-13.3 15 13.6 20h-14.7l-7.2-10.5-2.2 2.2v8.3z"/>
		<text id="Art Attack" style="opacity: 0;transform: matrix(1,0,0,1,4665.611,471.702)" >
			<tspan x="0" y="0" class="t4">Art Attack
</tspan>
		</text>
		<text id="Art Attack" style="transform: matrix(1,0,0,1,4665.611,471.702)" >
			<tspan x="0" y="0" class="t4">Art Attack
</tspan>
		</text>
		<g id="Mask" clip-path="url(#cp5)">
			<path id="Path 382" fill-rule="evenodd" class="s2" d="m5041.6 533.1h-368.6c-1.5 0-2.7-1.2-2.7-2.7v-261.6c0-49 19.2-95.2 54.1-130.1 34.9-34.9 81.1-54.1 130.1-54.1h5.7c49 0 95.2 19.2 130.1 54.1 34.8 34.9 54.1 81.1 54.1 130.1v261.6c0 1.5-1.3 2.7-2.8 2.7zm-187.1-446.7c-48.5 0-94.2 19.1-128.8 53.6-34.5 34.5-53.5 80.3-53.5 128.8v261.6c0 0.5 0.4 0.9 0.8 0.9h368.6c0.5 0 0.9-0.4 0.9-0.9v-261.6c0-48.5-19-94.3-53.5-128.8-34.6-34.5-80.3-53.6-128.8-53.6z"/>
			<path id="Path 383" fill-rule="evenodd" class="s2" d="m5032.8 522.9h-350.9c-1.3 0-2.3-1-2.3-2.3v-249.8c0-47.3 18.6-91.9 52.2-125.6 33.7-33.6 78.3-52.2 125.5-52.2 47.3 0 91.9 18.6 125.6 52.2 33.6 33.7 52.2 78.3 52.2 125.6v249.8c0 1.3-1.1 2.3-2.3 2.3zm-175.5-428c-46.7 0-90.9 18.3-124.2 51.6-33.3 33.4-51.6 77.5-51.6 124.3v249.8c0 0.3 0.2 0.5 0.4 0.5h350.9c0.2 0 0.4-0.2 0.4-0.5v-249.8c0-46.8-18.3-90.9-51.6-124.3-33.4-33.3-77.5-51.6-124.3-51.6zm-150.2 404.1c0 2-1.6 3.7-3.6 3.7-2 0-3.6-1.7-3.6-3.7 0-2 1.6-3.6 3.6-3.6 2 0 3.6 1.6 3.6 3.6zm307.7 0c0 2-1.6 3.6-3.6 3.6-2 0-3.6-1.6-3.6-3.6 0-2 1.6-3.6 3.6-3.6 2 0 3.6 1.6 3.6 3.6z"/>
		</g>
	</g>
</svg>