<svg xmlns="http://www.w3.org/2000/svg" xmlns:xlink="http://www.w3.org/1999/xlink" width="570" zoomAndPan="magnify" viewBox="0 0 427.5 314.999992" height="420" preserveAspectRatio="xMidYMid meet" version="1.0"><defs><clipPath id="b37a950e41"><path d="M 31.464844 246 L 61 246 L 61 283.234375 L 31.464844 283.234375 Z M 31.464844 246 " clip-rule="nonzero"/></clipPath><clipPath id="5bb85f1eec"><path d="M 55 246 L 84 246 L 84 283.234375 L 55 283.234375 Z M 55 246 " clip-rule="nonzero"/></clipPath><clipPath id="a0b7502617"><path d="M 78 268 L 94 268 L 94 283.234375 L 78 283.234375 Z M 78 268 " clip-rule="nonzero"/></clipPath><clipPath id="8dcb09dbc1"><path d="M 103 250 L 202.261719 250 L 202.261719 279 L 103 279 Z M 103 250 " clip-rule="nonzero"/></clipPath><clipPath id="654cde492c"><path d="M 39 31.648438 L 73 31.648438 L 73 41 L 39 41 Z M 39 31.648438 " clip-rule="nonzero"/></clipPath><clipPath id="5d8a86137b"><path d="M 31.464844 42 L 67 42 L 67 52 L 31.464844 52 Z M 31.464844 42 " clip-rule="nonzero"/></clipPath><clipPath id="dc040528f4"><path d="M 42 52 L 73 52 L 73 61.613281 L 42 61.613281 Z M 42 52 " clip-rule="nonzero"/></clipPath><clipPath id="78858bd346"><path d="M 160 38 L 202.261719 38 L 202.261719 56 L 160 56 Z M 160 38 " clip-rule="nonzero"/></clipPath><clipPath id="4358a167a2"><path d="M 312 46.707031 L 395.539062 46.707031 L 395.539062 123.121094 L 312 123.121094 Z M 312 46.707031 " clip-rule="nonzero"/></clipPath><clipPath id="c60c123b65"><path d="M 136 95.210938 L 201.925781 95.210938 L 201.925781 173.832031 L 136 173.832031 Z M 136 95.210938 " clip-rule="nonzero"/></clipPath><clipPath id="930f943db0"><path d="M 128 95.210938 L 147 95.210938 L 147 173.832031 L 128 173.832031 Z M 128 95.210938 " clip-rule="nonzero"/></clipPath><clipPath id="ef285a531d"><path d="M 76 95.210938 L 137 95.210938 L 137 173.832031 L 76 173.832031 Z M 76 95.210938 " clip-rule="nonzero"/></clipPath><clipPath id="ded3a765fd"><path d="M 31.871094 112 L 93 112 L 93 173.832031 L 31.871094 173.832031 Z M 31.871094 112 " clip-rule="nonzero"/></clipPath><clipPath id="6176cbdead"><path d="M 259 142.832031 L 347 142.832031 L 347 264.9375 L 259 264.9375 Z M 259 142.832031 " clip-rule="nonzero"/></clipPath><clipPath id="361b44cad1"><path d="M 225 185 L 395.539062 185 L 395.539062 236 L 225 236 Z M 225 185 " clip-rule="nonzero"/></clipPath></defs><g clip-path="url(#b37a950e41)"><path fill="#ce2027" d="M 39.351562 283.105469 C 38.679688 283.105469 38.019531 283.015625 37.375 282.839844 C 36.726562 282.660156 36.113281 282.402344 35.535156 282.058594 C 34.957031 281.71875 34.433594 281.304688 33.964844 280.824219 C 33.496094 280.34375 33.101562 279.808594 32.777344 279.222656 C 32.449219 278.632812 32.207031 278.011719 32.050781 277.359375 C 31.890625 276.707031 31.820312 276.046875 31.835938 275.375 C 31.855469 274.703125 31.960938 274.046875 32.15625 273.402344 C 32.347656 272.761719 32.625 272.15625 32.980469 271.585938 L 46.523438 249.957031 C 46.789062 249.535156 47.089844 249.148438 47.425781 248.789062 C 47.765625 248.425781 48.136719 248.105469 48.539062 247.816406 C 48.941406 247.53125 49.367188 247.285156 49.820312 247.085938 C 50.269531 246.882812 50.738281 246.726562 51.21875 246.613281 C 51.699219 246.503906 52.1875 246.441406 52.683594 246.425781 C 53.175781 246.410156 53.667969 246.445312 54.152344 246.527344 C 54.640625 246.609375 55.117188 246.738281 55.578125 246.914062 C 56.039062 247.089844 56.480469 247.308594 56.898438 247.570312 C 57.316406 247.832031 57.707031 248.132812 58.066406 248.472656 C 58.425781 248.8125 58.75 249.183594 59.035156 249.585938 C 59.324219 249.988281 59.566406 250.414062 59.769531 250.867188 C 59.972656 251.316406 60.128906 251.78125 60.238281 252.265625 C 60.351562 252.746094 60.414062 253.234375 60.429688 253.726562 C 60.441406 254.222656 60.410156 254.710938 60.328125 255.199219 C 60.246094 255.6875 60.117188 256.160156 59.941406 256.625 C 59.765625 257.085938 59.546875 257.527344 59.285156 257.945312 L 45.734375 279.574219 C 45.398438 280.117188 44.996094 280.605469 44.535156 281.046875 C 44.070312 281.484375 43.558594 281.859375 43 282.167969 C 42.441406 282.476562 41.855469 282.710938 41.234375 282.867188 C 40.617188 283.027344 39.988281 283.105469 39.351562 283.105469 Z M 39.351562 283.105469 " fill-opacity="1" fill-rule="nonzero"/></g><g clip-path="url(#5bb85f1eec)"><path fill="#f68b1f" d="M 62.695312 283.105469 C 62.023438 283.105469 61.363281 283.019531 60.714844 282.839844 C 60.066406 282.664062 59.449219 282.40625 58.871094 282.066406 C 58.292969 281.722656 57.769531 281.3125 57.300781 280.832031 C 56.832031 280.347656 56.433594 279.816406 56.109375 279.226562 C 55.78125 278.640625 55.539062 278.019531 55.378906 277.367188 C 55.21875 276.710938 55.148438 276.050781 55.167969 275.378906 C 55.183594 274.707031 55.289062 274.050781 55.484375 273.40625 C 55.679688 272.761719 55.953125 272.15625 56.308594 271.585938 L 69.863281 249.957031 C 70.113281 249.515625 70.40625 249.101562 70.742188 248.722656 C 71.078125 248.339844 71.445312 247.996094 71.851562 247.6875 C 72.253906 247.382812 72.683594 247.117188 73.144531 246.898438 C 73.601562 246.679688 74.074219 246.507812 74.566406 246.382812 C 75.058594 246.257812 75.558594 246.1875 76.066406 246.164062 C 76.574219 246.140625 77.078125 246.167969 77.578125 246.246094 C 78.078125 246.328125 78.566406 246.457031 79.042969 246.632812 C 79.519531 246.8125 79.972656 247.035156 80.402344 247.304688 C 80.832031 247.574219 81.230469 247.886719 81.597656 248.234375 C 81.964844 248.585938 82.292969 248.96875 82.582031 249.386719 C 82.871094 249.804688 83.117188 250.246094 83.316406 250.710938 C 83.515625 251.175781 83.667969 251.660156 83.773438 252.15625 C 83.875 252.652344 83.925781 253.15625 83.929688 253.664062 C 83.929688 254.167969 83.878906 254.671875 83.78125 255.167969 C 83.679688 255.667969 83.53125 256.148438 83.332031 256.617188 C 83.132812 257.085938 82.890625 257.527344 82.605469 257.945312 L 69.074219 279.574219 C 68.734375 280.117188 68.335938 280.605469 67.871094 281.046875 C 67.410156 281.484375 66.898438 281.859375 66.339844 282.167969 C 65.78125 282.476562 65.191406 282.710938 64.574219 282.867188 C 63.957031 283.027344 63.328125 283.105469 62.691406 283.105469 Z M 62.695312 283.105469 " fill-opacity="1" fill-rule="nonzero"/></g><g clip-path="url(#a0b7502617)"><path fill="#000000" d="M 93.566406 275.753906 C 93.566406 276.238281 93.519531 276.714844 93.421875 277.1875 C 93.324219 277.660156 93.183594 278.121094 92.992188 278.566406 C 92.804688 279.011719 92.570312 279.4375 92.296875 279.835938 C 92.023438 280.238281 91.710938 280.609375 91.359375 280.949219 C 91.007812 281.292969 90.628906 281.597656 90.21875 281.863281 C 89.804688 282.132812 89.371094 282.359375 88.914062 282.542969 C 88.457031 282.730469 87.984375 282.867188 87.5 282.960938 C 87.015625 283.054688 86.523438 283.101562 86.03125 283.101562 C 85.535156 283.101562 85.042969 283.054688 84.558594 282.960938 C 84.074219 282.867188 83.601562 282.730469 83.144531 282.542969 C 82.6875 282.359375 82.253906 282.132812 81.839844 281.863281 C 81.429688 281.597656 81.050781 281.292969 80.699219 280.949219 C 80.347656 280.609375 80.035156 280.238281 79.761719 279.835938 C 79.488281 279.4375 79.253906 279.011719 79.066406 278.566406 C 78.875 278.121094 78.734375 277.660156 78.636719 277.1875 C 78.539062 276.714844 78.492188 276.238281 78.492188 275.753906 C 78.492188 275.269531 78.539062 274.792969 78.636719 274.320312 C 78.734375 273.847656 78.875 273.386719 79.066406 272.941406 C 79.253906 272.496094 79.488281 272.070312 79.761719 271.671875 C 80.035156 271.269531 80.347656 270.898438 80.699219 270.558594 C 81.050781 270.214844 81.429688 269.910156 81.839844 269.644531 C 82.253906 269.375 82.6875 269.148438 83.144531 268.964844 C 83.601562 268.777344 84.074219 268.640625 84.558594 268.546875 C 85.042969 268.453125 85.535156 268.40625 86.03125 268.40625 C 86.523438 268.40625 87.015625 268.453125 87.5 268.546875 C 87.984375 268.640625 88.457031 268.777344 88.914062 268.964844 C 89.371094 269.148438 89.804688 269.375 90.21875 269.644531 C 90.628906 269.910156 91.007812 270.214844 91.359375 270.558594 C 91.710938 270.898438 92.023438 271.269531 92.296875 271.671875 C 92.570312 272.070312 92.804688 272.496094 92.992188 272.941406 C 93.183594 273.386719 93.324219 273.847656 93.421875 274.320312 C 93.519531 274.792969 93.566406 275.269531 93.566406 275.753906 Z M 93.566406 275.753906 " fill-opacity="1" fill-rule="nonzero"/></g><g clip-path="url(#8dcb09dbc1)"><path fill="#272626" d="M 202.214844 258.121094 L 197.847656 258.121094 L 194.785156 265.964844 L 191.746094 258.121094 L 187.367188 258.121094 L 192.683594 270.492188 L 189.378906 278.667969 L 193.71875 278.667969 Z M 175.980469 265 C 175.980469 266.976562 177.722656 268.277344 179.449219 268.277344 C 181.132812 268.277344 182.785156 267.066406 182.785156 265 C 182.785156 262.933594 181.132812 261.722656 179.449219 261.722656 C 177.738281 261.722656 175.980469 263.023438 175.980469 265 Z M 182.769531 271.910156 L 182.769531 270.34375 C 181.882812 271.671875 179.816406 272.175781 178.757812 272.175781 C 178.289062 272.175781 177.824219 272.128906 177.367188 272.035156 C 176.910156 271.945312 176.464844 271.808594 176.035156 271.625 C 175.601562 271.445312 175.195312 271.222656 174.808594 270.960938 C 174.421875 270.695312 174.0625 270.398438 173.734375 270.066406 C 173.410156 269.730469 173.117188 269.367188 172.863281 268.976562 C 172.609375 268.582031 172.394531 268.167969 172.222656 267.734375 C 172.050781 267.300781 171.921875 266.851562 171.839844 266.394531 C 171.757812 265.933594 171.71875 265.46875 171.730469 265 C 171.71875 264.535156 171.757812 264.070312 171.839844 263.609375 C 171.921875 263.148438 172.050781 262.703125 172.222656 262.269531 C 172.394531 261.832031 172.609375 261.421875 172.863281 261.027344 C 173.117188 260.636719 173.410156 260.273438 173.734375 259.9375 C 174.0625 259.605469 174.421875 259.304688 174.808594 259.042969 C 175.195312 258.78125 175.601562 258.558594 176.035156 258.378906 C 176.464844 258.195312 176.910156 258.058594 177.367188 257.96875 C 177.824219 257.875 178.289062 257.828125 178.757812 257.828125 C 179.640625 257.828125 181.707031 258.121094 182.769531 259.660156 L 182.769531 258.128906 L 186.839844 258.128906 L 186.839844 271.910156 Z M 170.570312 271.910156 L 166.496094 271.910156 L 166.496094 270.195312 C 165.816406 271.464844 164.164062 272.203125 162.449219 272.203125 C 158.90625 272.203125 155.777344 269.398438 155.777344 265.054688 C 155.777344 260.632812 158.90625 257.824219 162.449219 257.824219 C 164.164062 257.824219 165.816406 258.53125 166.496094 259.800781 L 166.496094 250.621094 L 170.570312 250.621094 Z M 166.40625 264.972656 C 166.40625 262.90625 164.902344 261.695312 163.21875 261.695312 C 161.476562 261.695312 160.027344 262.992188 160.027344 264.972656 C 160.027344 267.015625 161.476562 268.304688 163.21875 268.304688 C 164.929688 268.304688 166.40625 266.949219 166.40625 264.972656 Z M 145.707031 264.617188 C 145.707031 262.503906 146.796875 261.8125 148.242188 261.8125 C 149.632812 261.8125 150.632812 262.726562 150.632812 264.558594 L 150.632812 271.910156 L 154.738281 271.910156 L 154.738281 263.671875 C 154.738281 259.746094 152.789062 257.828125 149.6875 257.828125 C 148.066406 257.828125 146.441406 258.742188 145.703125 260.128906 L 145.703125 258.125 L 141.601562 258.125 L 141.601562 271.90625 L 145.703125 271.90625 Z M 133.269531 272.144531 C 129.371094 272.144531 126.121094 269.3125 126.121094 264.96875 C 126.121094 260.628906 129.371094 257.824219 133.269531 257.824219 C 137.167969 257.824219 140.441406 260.628906 140.441406 264.96875 C 140.441406 269.3125 137.164062 272.144531 133.269531 272.144531 Z M 133.269531 268.132812 C 134.980469 268.132812 136.398438 266.890625 136.398438 264.972656 C 136.398438 263.113281 134.980469 261.84375 133.269531 261.84375 C 132.851562 261.835938 132.453125 261.910156 132.066406 262.066406 C 131.683594 262.226562 131.34375 262.449219 131.050781 262.746094 C 130.757812 263.042969 130.535156 263.382812 130.382812 263.769531 C 130.230469 264.15625 130.15625 264.558594 130.167969 264.972656 C 130.167969 266.886719 131.585938 268.132812 133.269531 268.132812 Z M 118.757812 261.8125 C 119.96875 261.8125 121.03125 262.753906 121.03125 264.558594 L 121.03125 271.910156 L 125.105469 271.910156 L 125.105469 264.066406 C 125.105469 259.902344 123.0625 257.804688 119.789062 257.804688 C 118.816406 257.804688 116.984375 258.097656 115.65625 260.257812 C 114.890625 258.660156 113.414062 257.835938 111.234375 257.835938 C 110.464844 257.832031 109.753906 258.03125 109.101562 258.445312 C 108.449219 258.855469 107.960938 259.410156 107.632812 260.109375 L 107.632812 258.105469 L 103.535156 258.105469 L 103.535156 271.890625 L 107.636719 271.890625 L 107.636719 264.617188 C 107.636719 262.503906 108.789062 261.808594 110.027344 261.808594 C 111.210938 261.808594 112.273438 262.726562 112.300781 264.464844 L 112.300781 271.902344 L 116.40625 271.902344 L 116.40625 264.617188 C 116.40625 262.609375 117.46875 261.808594 118.757812 261.808594 Z M 118.757812 261.8125 " fill-opacity="1" fill-rule="evenodd"/></g><g clip-path="url(#654cde492c)"><path fill="#000000" d="M 39.3125 31.878906 L 72.84375 31.878906 L 72.84375 40.914062 L 39.3125 40.914062 Z M 39.3125 31.878906 " fill-opacity="1" fill-rule="nonzero"/></g><g clip-path="url(#5d8a86137b)"><path fill="#f68b1f" d="M 31.410156 42.183594 L 66.378906 42.183594 L 66.378906 51.222656 L 31.410156 51.222656 Z M 31.410156 42.183594 " fill-opacity="1" fill-rule="nonzero"/></g><g clip-path="url(#dc040528f4)"><path fill="#ce2027" d="M 42.765625 52.488281 L 72.84375 52.488281 L 72.84375 61.527344 L 42.765625 61.527344 Z M 42.765625 52.488281 " fill-opacity="1" fill-rule="nonzero"/></g><path fill="#272626" d="M 79.945312 39.4375 L 83.933594 39.4375 C 87.363281 39.4375 90.503906 40.433594 90.503906 44.207031 C 90.503906 47.878906 87.789062 49.21875 84.421875 49.21875 L 83.082031 49.21875 L 83.082031 55.203125 L 79.917969 55.203125 C 79.941406 55.203125 79.941406 39.4375 79.941406 39.4375 Z M 83.109375 46.734375 L 84.226562 46.734375 C 85.824219 46.734375 87.242188 46.222656 87.242188 44.375 C 87.242188 42.550781 85.855469 41.917969 84.226562 41.917969 L 83.109375 41.917969 Z M 92.472656 43.570312 L 95.191406 43.570312 L 95.191406 46.222656 L 95.238281 46.222656 C 95.398438 45.128906 96.625 43.304688 98.425781 43.304688 C 98.71875 43.304688 99.03125 43.304688 99.351562 43.398438 L 99.351562 46.441406 C 99.082031 46.28125 98.546875 46.199219 97.988281 46.199219 C 95.53125 46.199219 95.53125 49.265625 95.53125 50.941406 L 95.53125 55.226562 L 92.496094 55.226562 Z M 106 43.304688 C 109.457031 43.304688 112.109375 45.640625 112.109375 49.484375 C 112.109375 52.816406 109.871094 55.492188 106 55.492188 C 102.15625 55.492188 99.917969 52.816406 99.917969 49.484375 C 99.917969 45.617188 102.570312 43.304688 106 43.304688 M 106 53.132812 C 108.335938 53.132812 108.945312 51.066406 108.945312 49.117188 C 108.945312 47.339844 107.996094 45.664062 106 45.664062 C 104.03125 45.664062 103.082031 47.390625 103.082031 49.117188 C 103.082031 51.015625 103.691406 53.132812 106 53.132812 M 122.132812 53.882812 L 122.085938 53.882812 C 121.183594 55.003906 119.945312 55.480469 118.507812 55.480469 C 114.933594 55.480469 113.621094 52.539062 113.621094 49.351562 C 113.621094 46.15625 114.933594 43.292969 118.507812 43.292969 C 120.015625 43.292969 121.085938 43.804688 121.988281 44.921875 L 122.035156 44.921875 L 122.035156 38.242188 L 125.054688 38.242188 L 125.054688 55.203125 L 122.109375 55.203125 L 122.109375 53.890625 Z M 119.335938 53.128906 C 121.355469 53.128906 122.011719 51.011719 122.011719 49.359375 C 122.011719 47.730469 121.234375 45.660156 119.296875 45.660156 C 117.328125 45.660156 116.792969 47.800781 116.792969 49.359375 C 116.765625 50.957031 117.351562 53.128906 119.320312 53.128906 M 138.75 55.203125 L 135.878906 55.203125 L 135.878906 53.605469 L 135.832031 53.605469 C 134.90625 54.722656 133.59375 55.453125 131.996094 55.453125 C 129.25 55.453125 128.03125 53.507812 128.03125 50.878906 L 128.03125 43.53125 L 131.046875 43.53125 L 131.046875 49.734375 C 131.046875 51.167969 131.070312 53.066406 133.019531 53.066406 C 135.207031 53.066406 135.695312 50.683594 135.695312 49.199219 L 135.695312 43.507812 L 138.710938 43.507812 Z M 149.308594 46.09375 C 148.773438 45.851562 148.191406 45.65625 147.242188 45.65625 C 145.367188 45.65625 144.171875 47.144531 144.171875 49.332031 C 144.171875 51.472656 145.195312 53.128906 147.3125 53.128906 C 148.164062 53.128906 149.113281 52.8125 149.648438 52.59375 L 149.808594 55.097656 C 148.933594 55.367188 148.03125 55.488281 146.789062 55.488281 C 142.957031 55.488281 141.046875 52.882812 141.046875 49.332031 C 141.046875 45.976562 143.046875 43.296875 146.667969 43.296875 C 147.882812 43.296875 148.746094 43.457031 149.613281 43.6875 Z M 152.691406 45.800781 L 150.453125 45.800781 L 150.453125 43.585938 L 152.691406 43.585938 L 152.691406 41.25 L 155.707031 40.292969 L 155.707031 43.601562 L 158.421875 43.601562 L 158.421875 45.8125 L 155.707031 45.8125 L 155.707031 51.238281 C 155.707031 52.238281 155.976562 53.164062 157.140625 53.164062 C 157.675781 53.164062 158.210938 53.039062 158.527344 52.847656 L 158.625 55.230469 C 157.992188 55.402344 157.285156 55.496094 156.386719 55.496094 C 154.003906 55.496094 152.710938 54.035156 152.710938 51.726562 Z M 152.691406 45.800781 " fill-opacity="1" fill-rule="nonzero"/><g clip-path="url(#78858bd346)"><path fill="#000000" d="M 160.378906 39.4375 L 164.371094 39.4375 C 167.800781 39.4375 170.9375 40.433594 170.9375 44.207031 C 170.9375 47.878906 168.222656 49.21875 164.855469 49.21875 L 163.519531 49.21875 L 163.519531 55.203125 L 160.355469 55.203125 Z M 163.542969 46.734375 L 164.660156 46.734375 C 166.257812 46.734375 167.679688 46.222656 167.679688 44.375 C 167.679688 42.550781 166.292969 41.917969 164.660156 41.917969 L 163.542969 41.917969 Z M 172.886719 38.242188 L 175.902344 38.242188 L 175.902344 55.203125 L 172.882812 55.203125 Z M 179.527344 44.179688 C 180.816406 43.617188 182.160156 43.324219 183.566406 43.304688 C 187.117188 43.304688 188.578125 44.765625 188.578125 48.21875 L 188.578125 49.703125 L 188.625 52.625 L 188.785156 55.226562 L 186.117188 55.226562 C 185.996094 54.621094 185.996094 53.839844 185.957031 53.476562 L 185.910156 53.476562 C 185.203125 54.765625 183.695312 55.496094 182.308594 55.496094 C 180.242188 55.496094 178.246094 54.253906 178.246094 52.042969 C 178.246094 50.292969 179.074219 49.292969 180.242188 48.710938 C 181.386719 48.148438 182.894531 48.027344 184.160156 48.027344 L 185.839844 48.027344 C 185.839844 46.15625 185.011719 45.523438 183.210938 45.523438 C 181.921875 45.523438 180.632812 46.011719 179.609375 46.789062 Z M 183.078125 53.253906 C 184.007812 53.253906 184.734375 52.839844 185.195312 52.207031 C 185.683594 51.570312 185.828125 50.722656 185.828125 49.824219 L 184.515625 49.824219 C 183.152344 49.824219 181.160156 50.042969 181.160156 51.84375 C 181.160156 52.839844 181.988281 53.253906 183.082031 53.253906 M 191.449219 43.574219 L 194.320312 43.574219 L 194.320312 45.171875 L 194.367188 45.171875 C 195.316406 43.832031 196.605469 43.320312 198.203125 43.320312 C 200.953125 43.320312 202.167969 45.269531 202.167969 47.894531 L 202.167969 55.246094 L 199.152344 55.246094 L 199.152344 49.042969 C 199.152344 47.605469 199.128906 45.707031 197.183594 45.707031 C 194.992188 45.707031 194.507812 48.09375 194.507812 49.574219 L 194.507812 55.269531 L 191.488281 55.269531 Z M 191.449219 43.574219 " fill-opacity="1" fill-rule="nonzero"/></g><g clip-path="url(#4358a167a2)"><path fill="#000000" d="M 353.71875 46.785156 C 330.90625 46.785156 312.410156 61.367188 312.410156 79.351562 C 312.410156 90.980469 320.140625 101.183594 331.773438 106.949219 L 327.570312 121.917969 C 327.570312 121.917969 327.488281 122.617188 327.945312 122.882812 C 328.398438 123.148438 328.929688 122.945312 328.929688 122.945312 C 330.226562 122.761719 343.996094 113.089844 346.382812 111.410156 C 348.765625 111.75 351.21875 111.921875 353.722656 111.921875 C 376.535156 111.921875 395.03125 97.339844 395.03125 79.355469 C 395.03125 61.367188 376.53125 46.785156 353.722656 46.785156 Z M 353.71875 46.785156 " fill-opacity="1" fill-rule="nonzero"/></g><path fill="#ce2027" d="M 330.882812 90.722656 C 329.566406 90.722656 328.5 89.699219 328.5 88.445312 L 328.5 74.273438 L 324.78125 74.273438 C 324.472656 74.273438 324.171875 74.210938 323.886719 74.09375 C 323.601562 73.976562 323.347656 73.808594 323.128906 73.589844 C 322.910156 73.371094 322.742188 73.117188 322.621094 72.832031 C 322.503906 72.546875 322.441406 72.25 322.441406 71.9375 C 322.441406 71.628906 322.503906 71.332031 322.621094 71.046875 C 322.742188 70.761719 322.910156 70.507812 323.128906 70.289062 C 323.347656 70.070312 323.601562 69.902344 323.886719 69.785156 C 324.171875 69.664062 324.472656 69.605469 324.78125 69.605469 L 336.984375 69.605469 C 337.292969 69.605469 337.59375 69.664062 337.878906 69.785156 C 338.164062 69.902344 338.417969 70.070312 338.636719 70.289062 C 338.855469 70.507812 339.023438 70.761719 339.144531 71.046875 C 339.261719 71.332031 339.324219 71.628906 339.324219 71.9375 C 339.324219 72.25 339.261719 72.546875 339.144531 72.832031 C 339.023438 73.117188 338.855469 73.371094 338.636719 73.589844 C 338.417969 73.808594 338.164062 73.976562 337.878906 74.09375 C 337.59375 74.210938 337.292969 74.273438 336.984375 74.273438 L 333.261719 74.273438 L 333.261719 88.445312 C 333.261719 89.699219 332.195312 90.722656 330.878906 90.722656 Z M 351.777344 90.691406 C 350.785156 90.691406 350.023438 90.289062 349.792969 89.636719 L 348.617188 86.550781 L 341.351562 86.550781 L 340.171875 89.640625 C 339.941406 90.289062 339.183594 90.691406 338.191406 90.691406 C 337.667969 90.691406 337.148438 90.578125 336.675781 90.363281 C 336.019531 90.058594 335.386719 89.226562 336.109375 86.980469 L 341.808594 71.976562 C 342.210938 70.832031 343.429688 69.65625 344.980469 69.621094 C 346.539062 69.65625 347.757812 70.832031 348.160156 71.976562 L 353.859375 86.972656 C 354.582031 89.210938 353.953125 90.0625 353.292969 90.359375 C 352.816406 90.574219 352.300781 90.6875 351.78125 90.6875 Z M 347.363281 82.328125 L 344.984375 75.5625 L 342.601562 82.328125 Z M 357.691406 90.375 C 356.433594 90.375 355.410156 89.394531 355.410156 88.1875 L 355.410156 72 C 355.410156 70.6875 356.503906 69.617188 357.84375 69.617188 C 359.183594 69.617188 360.273438 70.6875 360.273438 72 L 360.273438 86 L 365.339844 86 C 366.597656 86 367.621094 86.980469 367.621094 88.1875 C 367.621094 89.390625 366.597656 90.371094 365.339844 90.371094 Z M 370.933594 90.691406 C 370.617188 90.6875 370.3125 90.628906 370.019531 90.507812 C 369.730469 90.386719 369.472656 90.214844 369.25 89.992188 C 369.027344 89.765625 368.851562 89.507812 368.730469 89.21875 C 368.609375 88.925781 368.550781 88.621094 368.550781 88.308594 L 368.550781 72.003906 C 368.550781 71.6875 368.609375 71.386719 368.730469 71.09375 C 368.851562 70.800781 369.027344 70.542969 369.25 70.320312 C 369.472656 70.097656 369.730469 69.925781 370.019531 69.804688 C 370.3125 69.683594 370.617188 69.621094 370.933594 69.621094 C 371.246094 69.621094 371.550781 69.683594 371.84375 69.804688 C 372.136719 69.925781 372.390625 70.097656 372.617188 70.320312 C 372.839844 70.542969 373.011719 70.800781 373.132812 71.09375 C 373.253906 71.386719 373.3125 71.6875 373.316406 72.003906 L 373.316406 77.125 L 379.964844 70.476562 C 380.332031 70.117188 380.773438 69.941406 381.285156 69.945312 C 381.882812 69.945312 382.480469 70.203125 382.925781 70.652344 C 383.34375 71.070312 383.59375 71.605469 383.628906 72.164062 C 383.664062 72.71875 383.476562 73.238281 383.101562 73.613281 L 377.671875 79.046875 L 383.539062 86.816406 C 383.921875 87.320312 384.085938 87.957031 383.996094 88.582031 C 383.90625 89.207031 383.578125 89.777344 383.070312 90.152344 C 382.648438 90.476562 382.171875 90.636719 381.636719 90.632812 C 380.890625 90.636719 380.183594 90.285156 379.734375 89.6875 L 374.144531 82.28125 L 373.320312 83.109375 L 373.320312 88.308594 C 373.320312 88.621094 373.257812 88.925781 373.136719 89.21875 C 373.015625 89.511719 372.84375 89.769531 372.621094 89.992188 C 372.398438 90.214844 372.140625 90.386719 371.847656 90.507812 C 371.554688 90.628906 371.25 90.691406 370.933594 90.691406 Z M 370.933594 90.691406 " fill-opacity="1" fill-rule="nonzero"/><path fill="#272626" d="M 225.246094 75.910156 L 229.273438 75.910156 L 229.273438 83.824219 L 230.484375 81.859375 L 234.550781 75.890625 L 239.503906 75.890625 L 233.582031 83.511719 L 239.828125 93.796875 L 235.183594 93.796875 L 230.792969 86.070312 L 229.257812 87.953125 L 229.257812 93.796875 L 225.246094 93.796875 Z M 259.28125 75.910156 L 263.3125 75.910156 L 263.3125 83.824219 L 264.523438 81.859375 L 268.589844 75.890625 L 273.542969 75.890625 L 267.699219 83.511719 L 273.945312 93.796875 L 269.230469 93.796875 L 264.839844 86.070312 L 263.304688 87.953125 L 263.304688 93.796875 L 259.277344 93.796875 Z M 280.097656 89.210938 L 278.832031 93.816406 L 274.632812 93.816406 L 279.316406 78.464844 C 279.429688 78.097656 279.601562 77.757812 279.824219 77.445312 C 280.046875 77.132812 280.3125 76.859375 280.625 76.632812 C 280.933594 76.402344 281.273438 76.230469 281.636719 76.109375 C 282.003906 75.988281 282.378906 75.929688 282.765625 75.929688 C 283.148438 75.929688 283.523438 75.988281 283.890625 76.109375 C 284.253906 76.230469 284.59375 76.402344 284.902344 76.632812 C 285.214844 76.859375 285.480469 77.132812 285.703125 77.445312 C 285.925781 77.757812 286.097656 78.097656 286.210938 78.464844 L 290.976562 93.84375 L 286.535156 93.84375 L 285.164062 89.238281 Z M 284.648438 86.195312 L 283.519531 82.371094 L 282.601562 78.9375 L 281.765625 82.371094 L 280.714844 86.167969 Z M 246.898438 89.210938 L 245.632812 93.816406 L 241.429688 93.816406 L 246.144531 78.464844 C 246.257812 78.097656 246.429688 77.757812 246.652344 77.445312 C 246.875 77.132812 247.140625 76.859375 247.453125 76.632812 C 247.761719 76.402344 248.101562 76.230469 248.464844 76.109375 C 248.832031 75.988281 249.207031 75.929688 249.59375 75.929688 C 249.976562 75.929688 250.351562 75.988281 250.71875 76.109375 C 251.085938 76.230469 251.421875 76.402344 251.730469 76.632812 C 252.042969 76.859375 252.308594 77.132812 252.53125 77.445312 C 252.753906 77.757812 252.925781 78.097656 253.039062 78.464844 L 257.804688 93.84375 L 253.414062 93.84375 L 252.042969 89.238281 Z M 251.527344 86.195312 L 250.316406 82.371094 L 249.402344 78.9375 L 248.566406 82.371094 L 247.515625 86.167969 Z M 305.761719 84.703125 C 305.761719 90.574219 302.582031 94.125 297.925781 94.125 C 293.265625 94.125 290.4375 90.097656 290.4375 85.078125 C 290.4375 80.058594 293.480469 75.707031 298.191406 75.707031 C 302.90625 75.707031 305.761719 79.691406 305.761719 84.703125 Z M 294.234375 84.945312 C 294.234375 88.445312 295.6875 90.921875 298.113281 90.921875 C 300.539062 90.921875 301.9375 88.230469 301.9375 84.835938 C 301.9375 81.441406 300.566406 78.855469 298.089844 78.855469 C 295.613281 78.855469 294.238281 81.46875 294.238281 84.945312 Z M 294.234375 84.945312 " fill-opacity="1" fill-rule="nonzero"/><g clip-path="url(#c60c123b65)"><path fill="#272626" d="M 136.648438 161.089844 L 146.210938 161.089844 L 146.210938 173.859375 L 159.851562 173.859375 L 159.851562 161.089844 L 151.953125 161.089844 L 165.363281 144.546875 L 178.789062 161.089844 L 170.878906 161.089844 L 170.878906 173.859375 L 201.925781 173.859375 L 201.925781 161.089844 L 196.101562 161.089844 L 174.015625 133.871094 L 195.253906 107.671875 L 201.925781 107.671875 L 201.925781 95.210938 L 170.878906 95.210938 L 170.878906 107.675781 L 177.933594 107.675781 L 165.355469 123.195312 L 152.761719 107.675781 L 159.851562 107.675781 L 159.851562 95.210938 L 136.648438 95.210938 L 136.648438 109.164062 L 156.695312 133.875 L 136.648438 158.605469 Z M 136.648438 161.089844 " fill-opacity="1" fill-rule="nonzero"/></g><g clip-path="url(#930f943db0)"><path fill="#000000" d="M 136.648438 109.164062 L 136.648438 95.210938 L 128.644531 95.210938 L 128.644531 107.675781 L 135.4375 107.675781 Z M 146.207031 161.089844 L 136.648438 161.089844 L 136.648438 158.605469 L 134.628906 161.089844 L 128.644531 161.089844 L 128.644531 173.859375 L 146.207031 173.859375 Z M 146.207031 161.089844 " fill-opacity="1" fill-rule="nonzero"/></g><path fill="#ce2027" d="M 78.800781 155.238281 L 89.828125 155.238281 C 88.527344 158.464844 86.726562 161.382812 84.421875 163.984375 C 82.042969 161.394531 80.167969 158.480469 78.800781 155.238281 M 84.421875 122.796875 C 81.175781 126.332031 78.894531 130.40625 77.578125 135.019531 C 78.09375 136.027344 78.507812 137.074219 78.828125 138.160156 L 89.742188 138.160156 C 90.070312 137.089844 90.496094 136.054688 91.023438 135.066406 C 89.785156 130.457031 87.582031 126.367188 84.421875 122.796875 Z M 78.824219 138.160156 C 79.804688 141.535156 79.832031 144.921875 78.90625 148.3125 L 89.640625 148.3125 C 89.164062 146.652344 88.933594 144.957031 88.949219 143.230469 C 88.964844 141.5 89.222656 139.8125 89.730469 138.160156 Z M 78.824219 138.160156 L 76.855469 138.160156 C 76.273438 141.539062 76.257812 144.925781 76.808594 148.3125 L 78.90625 148.3125 C 79.832031 144.921875 79.804688 141.535156 78.824219 138.160156 Z M 78.824219 138.160156 " fill-opacity="1" fill-rule="nonzero"/><g clip-path="url(#ef285a531d)"><path fill="#f68b1f" d="M 135.4375 107.675781 L 128.644531 107.675781 L 128.644531 95.214844 L 115.820312 95.214844 L 115.820312 107.675781 L 124.105469 107.675781 L 124.105469 118.414062 C 121.59375 116.613281 118.867188 115.242188 115.925781 114.304688 C 112.984375 113.367188 109.964844 112.902344 106.878906 112.917969 C 104.765625 112.914062 102.675781 113.128906 100.605469 113.5625 C 98.539062 113.996094 96.539062 114.640625 94.605469 115.492188 C 92.671875 116.339844 90.84375 117.382812 89.128906 118.613281 C 87.410156 119.84375 85.839844 121.242188 84.414062 122.800781 C 87.574219 126.371094 89.773438 130.460938 91.007812 135.070312 C 91.765625 133.640625 92.699219 132.335938 93.808594 131.164062 C 94.921875 129.988281 96.167969 128.984375 97.554688 128.152344 C 98.941406 127.316406 100.410156 126.683594 101.96875 126.25 C 103.527344 125.820312 105.113281 125.601562 106.730469 125.605469 C 116.554688 125.605469 124.105469 133.566406 124.105469 143.386719 L 124.105469 143.480469 C 124.054688 153.257812 116.527344 161.167969 106.730469 161.167969 C 105.113281 161.167969 103.527344 160.953125 101.96875 160.519531 C 100.410156 160.089844 98.941406 159.457031 97.554688 158.621094 C 96.167969 157.789062 94.921875 156.785156 93.808594 155.609375 C 92.699219 154.433594 91.765625 153.132812 91.007812 151.703125 C 90.433594 150.621094 89.976562 149.492188 89.636719 148.316406 L 76.8125 148.316406 C 77.199219 150.703125 77.863281 153.007812 78.804688 155.234375 L 89.820312 155.234375 C 88.523438 158.460938 86.71875 161.375 84.414062 163.980469 C 85.839844 165.539062 87.410156 166.933594 89.128906 168.164062 C 90.84375 169.394531 92.671875 170.4375 94.605469 171.289062 C 96.539062 172.140625 98.539062 172.78125 100.605469 173.214844 C 102.675781 173.648438 104.765625 173.863281 106.878906 173.859375 C 108.925781 173.871094 110.949219 173.667969 112.953125 173.253906 C 114.957031 172.839844 116.898438 172.222656 118.773438 171.402344 C 120.648438 170.578125 122.417969 169.574219 124.082031 168.382812 C 125.742188 167.1875 127.265625 165.835938 128.644531 164.324219 L 128.644531 161.097656 L 134.621094 161.097656 L 136.640625 158.605469 L 136.640625 109.167969 Z M 124.105469 168.363281 L 124.105469 173.878906 L 128.644531 173.878906 L 128.644531 164.324219 C 127.269531 165.828125 125.757812 167.175781 124.105469 168.367188 Z M 77.578125 135.023438 C 77.28125 136.054688 77.042969 137.105469 76.859375 138.164062 L 78.828125 138.164062 C 78.507812 137.078125 78.09375 136.03125 77.578125 135.023438 Z M 77.578125 135.023438 " fill-opacity="1" fill-rule="nonzero"/></g><g clip-path="url(#ded3a765fd)"><path fill="#b72768" d="M 91.683594 138.164062 C 91.511719 137.121094 91.289062 136.089844 91.015625 135.070312 C 90.488281 136.058594 90.058594 137.089844 89.730469 138.164062 C 89.226562 139.816406 88.964844 141.507812 88.953125 143.234375 C 88.9375 144.964844 89.167969 146.660156 89.644531 148.320312 L 91.730469 148.320312 C 92.253906 144.933594 92.238281 141.546875 91.683594 138.164062 Z M 62.339844 112.921875 C 47.527344 112.921875 34.859375 123.574219 32.316406 138.164062 L 45.191406 138.164062 C 47.484375 130.699219 54.382812 125.601562 62.195312 125.601562 C 63.785156 125.59375 65.351562 125.804688 66.882812 126.234375 C 68.417969 126.664062 69.863281 127.292969 71.222656 128.125 C 72.578125 128.957031 73.796875 129.957031 74.878906 131.128906 C 75.957031 132.300781 76.855469 133.597656 77.574219 135.019531 C 78.890625 130.40625 81.171875 126.332031 84.417969 122.796875 C 83.035156 121.234375 81.503906 119.835938 79.824219 118.597656 C 78.144531 117.363281 76.351562 116.320312 74.449219 115.46875 C 72.542969 114.613281 70.570312 113.972656 68.53125 113.542969 C 66.488281 113.113281 64.425781 112.902344 62.339844 112.914062 Z M 75.222656 155.246094 C 74.417969 156.183594 73.519531 157.023438 72.53125 157.765625 C 71.542969 158.503906 70.484375 159.132812 69.359375 159.644531 C 68.234375 160.15625 67.066406 160.542969 65.859375 160.800781 C 64.648438 161.0625 63.425781 161.1875 62.191406 161.179688 C 61.234375 161.179688 60.28125 161.105469 59.335938 160.949219 C 58.390625 160.796875 57.460938 160.570312 56.554688 160.265625 C 55.644531 159.960938 54.765625 159.585938 53.917969 159.140625 C 53.070312 158.695312 52.261719 158.183594 51.496094 157.609375 C 50.730469 157.035156 50.015625 156.398438 49.355469 155.707031 C 48.691406 155.015625 48.085938 154.277344 47.542969 153.488281 C 47 152.699219 46.523438 151.871094 46.113281 151.003906 C 45.703125 150.140625 45.367188 149.246094 45.101562 148.324219 L 76.808594 148.324219 C 76.257812 144.9375 76.273438 141.550781 76.855469 138.171875 L 32.316406 138.171875 C 31.734375 141.550781 31.714844 144.9375 32.265625 148.324219 C 34.6875 163.050781 47.414062 173.859375 62.339844 173.859375 C 64.425781 173.871094 66.492188 173.660156 68.53125 173.230469 C 70.574219 172.800781 72.546875 172.15625 74.449219 171.304688 C 76.355469 170.453125 78.148438 169.40625 79.828125 168.171875 C 81.507812 166.933594 83.039062 165.535156 84.421875 163.96875 C 82.042969 161.378906 80.167969 158.464844 78.800781 155.226562 L 75.226562 155.226562 Z M 75.222656 155.246094 " fill-opacity="1" fill-rule="nonzero"/></g><g clip-path="url(#6176cbdead)"><path fill="#000000" d="M 342.332031 232.550781 C 338.21875 229.808594 336.160156 231.183594 336.160156 231.183594 C 336.160156 231.183594 336.246094 234.355469 339.332031 237.011719 C 342.417969 239.667969 346.53125 239.324219 346.53125 239.324219 C 346.53125 239.324219 346.445312 235.296875 342.328125 232.554688 Z M 280.785156 248.496094 C 277.871094 253.46875 279.15625 257.667969 279.15625 257.667969 C 279.15625 257.667969 282.5 258.609375 286.699219 253.125 C 290.902344 247.640625 289.1875 242.238281 289.1875 242.238281 C 289.1875 242.238281 283.699219 243.523438 280.785156 248.496094 Z M 267.839844 235.980469 C 264.753906 238.636719 264.667969 241.808594 264.667969 241.808594 C 264.667969 241.808594 266.726562 243.179688 270.84375 240.441406 C 274.960938 237.699219 275.042969 233.667969 275.042969 233.667969 C 275.042969 233.667969 271.015625 233.242188 267.84375 235.984375 Z M 305.902344 246.953125 C 305.902344 246.953125 302.558594 249.523438 302.128906 255.011719 C 301.699219 260.496094 305.386719 264.527344 305.386719 264.527344 C 305.386719 264.527344 309.671875 261.269531 309.332031 254.667969 C 309.074219 247.980469 305.902344 246.953125 305.902344 246.953125 Z M 328.277344 246.867188 C 328.277344 246.867188 327.332031 249.867188 329.390625 253.382812 C 331.445312 256.898438 335.472656 257.839844 335.472656 257.839844 C 335.472656 257.839844 336.671875 253.984375 333.671875 250.125 C 330.585938 246.183594 328.269531 246.867188 328.269531 246.867188 Z M 342.332031 171.003906 C 346.449219 168.261719 346.535156 164.234375 346.535156 164.234375 C 346.535156 164.234375 342.503906 163.804688 339.332031 166.546875 C 336.25 169.203125 336.160156 172.375 336.160156 172.375 C 336.160156 172.375 338.21875 173.746094 342.335938 171.007812 Z M 270.148438 176.40625 C 270.148438 176.40625 270.0625 172.375 265.949219 169.632812 C 261.835938 166.890625 259.773438 168.265625 259.773438 168.265625 C 259.773438 168.265625 259.859375 171.4375 262.945312 174.09375 C 266.03125 176.835938 270.144531 176.40625 270.144531 176.40625 Z M 283.78125 161.492188 C 283.78125 161.492188 284.980469 157.636719 281.980469 153.773438 C 278.980469 149.832031 276.578125 150.515625 276.578125 150.515625 C 276.578125 150.515625 275.636719 153.515625 277.691406 157.03125 C 279.832031 160.632812 283.777344 161.488281 283.777344 161.488281 Z M 330.242188 156.695312 C 334.441406 151.292969 332.726562 145.976562 332.726562 145.976562 C 332.726562 145.976562 327.242188 147.265625 324.328125 152.152344 C 321.414062 157.042969 322.785156 161.238281 322.785156 161.238281 C 322.785156 161.238281 326.042969 162.183594 330.242188 156.695312 Z M 305.125 151.894531 C 305.382812 145.808594 301.4375 142.808594 301.4375 142.808594 C 301.4375 142.808594 298.097656 146.492188 298.4375 151.550781 C 298.867188 156.609375 301.953125 158.917969 301.953125 158.917969 C 301.953125 158.917969 304.867188 157.976562 305.125 151.890625 Z M 305.125 151.894531 " fill-opacity="1" fill-rule="nonzero"/></g><path fill="#f68b1f" d="M 306.242188 170.402344 C 288.667969 170.402344 274.4375 184.632812 274.4375 202.207031 C 274.4375 219.777344 288.667969 234.007812 306.242188 234.007812 C 323.8125 234.007812 338.042969 219.777344 338.042969 202.207031 C 338.042969 184.632812 323.8125 170.402344 306.242188 170.402344 Z M 306.242188 230.324219 C 290.726562 230.324219 278.207031 217.722656 278.207031 202.207031 C 278.207031 186.691406 290.722656 174.089844 306.242188 174.089844 C 321.761719 174.089844 334.277344 186.691406 334.277344 202.207031 C 334.277344 217.722656 321.761719 230.324219 306.242188 230.324219 Z M 306.242188 230.324219 " fill-opacity="1" fill-rule="nonzero"/><path fill="#000000" d="M 306.582031 179.148438 C 293.632812 179.148438 283.265625 189.691406 283.265625 202.464844 C 283.261719 203.226562 283.296875 203.992188 283.367188 204.75 C 283.441406 205.511719 283.550781 206.269531 283.699219 207.019531 C 283.84375 207.769531 284.027344 208.507812 284.25 209.242188 C 284.46875 209.972656 284.726562 210.691406 285.015625 211.398438 C 285.308594 212.105469 285.632812 212.796875 285.992188 213.472656 C 286.351562 214.144531 286.742188 214.800781 287.167969 215.4375 C 287.589844 216.074219 288.046875 216.6875 288.53125 217.277344 C 289.015625 217.871094 289.527344 218.433594 290.066406 218.976562 C 290.609375 219.515625 291.175781 220.027344 291.765625 220.515625 C 292.355469 221 292.96875 221.453125 293.605469 221.878906 C 294.242188 222.300781 294.898438 222.691406 295.570312 223.050781 C 296.246094 223.410156 296.9375 223.738281 297.644531 224.027344 C 298.351562 224.320312 299.070312 224.574219 299.800781 224.796875 C 300.535156 225.015625 301.277344 225.199219 302.027344 225.347656 C 302.777344 225.492188 303.53125 225.601562 304.292969 225.675781 C 305.054688 225.746094 305.816406 225.78125 306.582031 225.78125 C 319.4375 225.78125 329.808594 215.320312 329.808594 202.464844 C 329.808594 189.605469 319.4375 179.148438 306.582031 179.148438 Z M 306.582031 179.148438 " fill-opacity="1" fill-rule="nonzero"/><g clip-path="url(#361b44cad1)"><path fill="#272626" d="M 234.578125 233.492188 L 225.148438 194.148438 L 242.035156 190.117188 L 243.492188 196.117188 L 232.519531 198.777344 L 235.09375 209.492188 L 243.0625 207.609375 L 244.519531 213.609375 L 236.550781 215.492188 L 239.121094 226.207031 L 250.09375 223.550781 L 251.550781 229.550781 L 234.578125 233.496094 Z M 263.722656 227.75 C 261.066406 228.175781 258.667969 227.664062 256.523438 226.121094 C 254.382812 224.578125 253.097656 222.519531 252.582031 219.867188 L 248.894531 198.09375 C 248.46875 195.4375 248.980469 193.035156 250.523438 190.890625 C 252.066406 188.75 254.210938 187.378906 256.78125 186.949219 C 259.4375 186.519531 261.835938 187.035156 263.980469 188.578125 C 266.125 190.117188 267.410156 192.261719 267.835938 194.832031 L 268.609375 199.375 L 262.351562 200.40625 L 261.582031 195.691406 C 261.410156 194.75 260.984375 193.976562 260.121094 193.375 C 259.351562 192.777344 258.496094 192.601562 257.464844 192.777344 C 256.519531 192.949219 255.75 193.375 255.238281 194.238281 C 254.722656 195.007812 254.464844 195.863281 254.640625 196.894531 L 258.496094 218.839844 C 258.671875 219.78125 259.09375 220.554688 259.867188 221.066406 C 260.640625 221.582031 261.496094 221.839844 262.4375 221.664062 C 263.382812 221.488281 264.152344 221.066406 264.753906 220.292969 C 265.351562 219.519531 265.527344 218.664062 265.351562 217.722656 L 264.40625 212.234375 L 270.664062 211.207031 L 271.605469 216.777344 C 272.035156 219.433594 271.519531 221.835938 269.976562 223.980469 C 268.347656 226.035156 266.292969 227.324219 263.71875 227.75 Z M 360.246094 217.722656 C 359.90625 220.550781 358.789062 222.777344 356.988281 224.492188 C 355.789062 225.695312 354.246094 226.378906 352.449219 226.722656 C 351.417969 226.894531 350.304688 226.894531 349.019531 226.636719 C 346.617188 226.292969 344.816406 225.351562 343.445312 223.980469 C 342.332031 222.867188 341.472656 221.40625 340.960938 219.609375 C 340.445312 217.808594 340.273438 215.921875 340.53125 213.777344 L 346.359375 214.207031 C 346.273438 216.605469 346.617188 218.320312 347.476562 219.519531 C 348.070312 220.460938 348.84375 220.890625 349.789062 221.0625 C 351.078125 221.238281 352.277344 220.71875 353.21875 219.605469 C 353.734375 219.089844 354.078125 218.234375 354.25 217.035156 C 354.507812 215.40625 353.992188 213.605469 352.707031 211.71875 L 348.164062 205.804688 C 346.449219 203.578125 345.335938 201.605469 344.734375 199.976562 C 344.140625 198.089844 343.964844 196.203125 344.21875 194.148438 C 344.734375 190.546875 346.449219 187.972656 349.191406 186.433594 C 350.90625 185.574219 352.792969 185.234375 355.023438 185.574219 C 357.164062 185.917969 358.964844 186.691406 360.335938 187.890625 C 361.449219 188.832031 362.222656 190.035156 362.734375 191.488281 C 363.25 192.945312 363.507812 194.578125 363.332031 196.289062 L 357.417969 196.464844 C 357.503906 194.835938 357.246094 193.460938 356.5625 192.433594 C 356.132812 191.664062 355.359375 191.234375 354.332031 191.066406 C 353.21875 190.894531 352.273438 191.238281 351.589844 192.179688 C 350.992188 192.867188 350.644531 193.808594 350.472656 195.007812 C 350.214844 196.808594 350.730469 198.78125 352.015625 200.921875 C 352.53125 201.695312 353.304688 202.722656 354.332031 203.925781 L 356.730469 206.839844 C 358.019531 208.554688 358.875 210.183594 359.476562 211.726562 C 359.734375 212.5 359.992188 213.097656 360.070312 213.785156 C 360.242188 215.324219 360.414062 216.609375 360.242188 217.726562 Z M 367.449219 229.636719 L 361.449219 228.4375 L 369.589844 188.832031 L 375.589844 190.03125 Z M 380.222656 223.035156 L 376.449219 231.695312 L 370.273438 230.152344 L 386.988281 192.777344 L 395.132812 194.832031 L 391.617188 235.636719 L 385.441406 234.011719 L 386.382812 224.664062 Z M 388.792969 202.632812 L 382.617188 217.464844 L 386.988281 218.578125 L 388.789062 202.632812 Z M 388.792969 202.632812 " fill-opacity="1" fill-rule="nonzero"/></g><path fill="#ce2027" d="M 329.304688 207.085938 C 329.304688 207.257812 329.304688 207.429688 329.390625 207.601562 C 329.476562 207.34375 329.476562 207.085938 329.5625 206.746094 C 329.390625 206.832031 329.390625 207.003906 329.304688 207.089844 Z M 313.273438 211.371094 C 312.503906 211.886719 311.988281 212.402344 311.816406 213.6875 C 311.992188 213.945312 312.074219 214.117188 312.414062 214.285156 C 313.355469 213.941406 314.386719 212.398438 313.699219 211.457031 C 313.527344 211.371094 313.441406 211.371094 313.273438 211.371094 Z M 302.132812 181.796875 C 301.703125 181.628906 301.191406 181.542969 300.761719 181.371094 C 299.648438 181.628906 298.277344 181.371094 296.992188 181.113281 C 296.046875 181.542969 295.105469 182.054688 294.246094 182.570312 C 294.417969 182.746094 294.589844 183 294.675781 183.257812 C 294.503906 183.855469 293.902344 184.457031 294.160156 185.140625 C 294.246094 185.570312 294.417969 185.738281 294.757812 186 C 295.871094 186.085938 296.472656 185.402344 297.328125 185.140625 L 299.984375 184.714844 C 301.015625 184.457031 302.816406 183 302.125 181.800781 Z M 288.5 203.230469 L 287.214844 201.347656 C 286.101562 200.230469 284.984375 199.289062 283.527344 198.945312 C 283.355469 200.0625 283.273438 201.261719 283.273438 202.460938 C 283.273438 206.40625 284.214844 210.175781 286.015625 213.433594 C 286.273438 213.175781 286.53125 213.003906 286.789062 212.746094 C 287.128906 212.148438 287.558594 211.546875 287.902344 210.945312 C 288.5 210.351562 289.445312 210.175781 289.957031 209.488281 C 290.132812 208.972656 290.386719 208.375 290.554688 207.859375 C 290.898438 207.175781 291.753906 206.660156 291.585938 205.71875 C 291.15625 204.347656 289.441406 204.175781 288.5 203.230469 Z M 289.015625 188.828125 C 289.789062 188.488281 290.214844 189.425781 290.816406 188.742188 C 291.589844 187.972656 290.558594 186.6875 290.558594 185.828125 C 290.558594 185.652344 290.644531 185.402344 290.734375 185.230469 C 289.191406 186.601562 287.90625 188.230469 286.789062 189.945312 C 287.132812 189.863281 287.476562 189.863281 287.738281 189.773438 C 288.253906 189.515625 288.59375 189.175781 289.023438 188.828125 Z M 323.390625 186.257812 C 322.875 186.257812 322.359375 186.257812 321.847656 186.34375 C 319.53125 186.6875 317.21875 187.03125 314.5625 187.117188 C 312.246094 187.117188 311.046875 185.230469 308.816406 185.746094 C 307.960938 185.921875 306.332031 186.863281 305.902344 187.546875 C 305.308594 188.496094 306.074219 189.089844 304.960938 189.605469 C 304.1875 189.429688 303.929688 188.832031 303.246094 188.492188 C 302.648438 188.574219 302.390625 188.75 302.046875 189.175781 C 301.960938 190.207031 302.730469 190.375 302.730469 191.40625 C 302.304688 192 301.273438 192.089844 301.015625 192.773438 C 300.675781 193.546875 301.015625 194.402344 300.503906 195.003906 C 299.730469 195.6875 298.960938 196.460938 298.273438 197.144531 C 296.816406 198.941406 297.503906 201.855469 298.617188 202.972656 C 299.648438 204.003906 301.1875 203.148438 302.5625 203.746094 C 303.589844 204.171875 303.761719 206.144531 304.019531 207.085938 C 304.535156 208.628906 303.589844 209.3125 303.589844 210.773438 C 303.589844 212.230469 304.105469 216.429688 306.164062 216.34375 C 308.476562 216.257812 308.988281 213.945312 310.277344 212.402344 C 310.703125 211.886719 311.390625 211.628906 311.734375 210.859375 C 311.734375 210.085938 311.820312 209.230469 311.820312 208.460938 C 312.335938 207.089844 313.960938 206.660156 314.820312 205.628906 C 315.679688 204.6875 314.90625 203.914062 315.335938 203.144531 C 315.335938 203.144531 315.421875 203.144531 315.421875 203.058594 C 316.109375 202.628906 316.792969 202.285156 317.566406 201.859375 C 317.910156 201.429688 318.25 201 318.59375 200.65625 L 319.367188 200.402344 C 322.023438 201.769531 321.082031 204.515625 322.96875 205.972656 C 323.136719 205.886719 323.222656 205.800781 323.394531 205.714844 C 323.652344 205.371094 323.480469 205.03125 323.652344 204.515625 C 323.996094 203.484375 325.195312 202.457031 326.480469 202.714844 C 327.078125 203.484375 328.109375 204.515625 328.28125 205.628906 C 328.457031 206.660156 327.765625 207.257812 327.765625 208.117188 C 327.765625 208.714844 328.109375 209.488281 328.621094 210.261719 C 328.964844 209.402344 329.21875 208.460938 329.394531 207.519531 C 329.394531 207.34375 329.394531 207.175781 329.308594 207.003906 C 329.394531 206.917969 329.394531 206.832031 329.480469 206.660156 C 329.738281 205.289062 329.90625 203.832031 329.90625 202.375 C 329.90625 196.199219 327.421875 190.457031 323.394531 186.257812 Z M 310.617188 196.972656 C 310.101562 197.058594 309.589844 196.714844 309.25 196.546875 C 308.652344 196.460938 307.964844 196.460938 307.363281 196.375 C 307.277344 196.375 304.277344 193.976562 304.191406 193.804688 C 304.367188 193.375 304.535156 193.375 304.789062 193.207031 C 305.902344 193.464844 306.15625 194.148438 306.929688 194.492188 L 308.132812 194.75 C 308.558594 195.09375 308.988281 195.347656 309.417969 195.691406 C 309.933594 195.949219 310.617188 195.949219 311.046875 196.035156 C 311.046875 196.121094 311.132812 196.210938 311.132812 196.292969 L 311.132812 196.71875 C 310.875 196.804688 310.789062 196.890625 310.617188 196.976562 Z M 307.273438 196.375 L 304.101562 193.804688 C 304.277344 193.980469 307.1875 196.375 307.273438 196.375 Z M 307.273438 196.375 " fill-opacity="1" fill-rule="nonzero"/></svg>